<?xml version="1.0" encoding="UTF-8"?>
<svg width="16px" height="16px" viewBox="0 0 16 16" version="1.1" xmlns="http://www.w3.org/2000/svg" xmlns:xlink="http://www.w3.org/1999/xlink">
    <title>✧ Icon/AlarmManagement</title>
    <defs>
        <linearGradient x1="-59.7107154%" y1="241.723375%" x2="76.7009169%" y2="19.5853546%" id="linearGradient-1">
            <stop stop-color="#0019F4" offset="0%"></stop>
            <stop stop-color="#8A62FF" offset="100%"></stop>
        </linearGradient>
    </defs>
    <g id="Symbols" stroke="none" stroke-width="1" fill="none" fill-rule="evenodd">
        <g id="✧-Icon/AlarmManagement">
            <rect id="矩形" fill="#FFFFFF" opacity="0" x="0" y="0" width="16" height="16"></rect>
            <path d="M1.72727273,13.4104663 L14.2727273,13.4104663 C14.6191604,13.4104663 14.9,13.6913059 14.9,14.037739 C14.9,14.3841722 14.6191604,14.6650118 14.2727273,14.6650118 L1.72727273,14.6650118 C1.38083957,14.6650118 1.1,14.3841722 1.1,14.037739 C1.1,13.6913059 1.38083957,13.4104663 1.72727273,13.4104663 Z M8,3.37410267 C10.5982487,3.37410267 12.7045455,5.31837658 12.7045455,7.71676001 L12.7045455,11.5286481 C12.7045455,12.2215144 12.1428663,12.7831936 11.45,12.7831936 L7.04375,12.7831936 L7.04375,9.85478449 C7.04375,9.52341364 6.77512085,9.25478449 6.44375,9.25478449 C6.14551624,9.25478449 5.89810325,9.4723741 5.85160299,9.75746137 L5.84375,9.85478449 L5.84375,12.7831936 L4.55,12.7831936 C3.85713368,12.7831936 3.29545455,12.2215144 3.29545455,11.5286481 L3.29545455,7.71676001 C3.29545455,5.31837658 5.4017513,3.37410267 8,3.37410267 Z M10.8192476,1.34397315 C11.7351163,1.26403032 12.6502671,1.5283162 13.3895058,2.10587275 C14.1289746,2.68360909 14.6068678,3.50797022 14.7507065,4.41629 C14.7958606,4.70143121 14.6013126,4.96918845 14.3161714,5.01434253 C14.0310302,5.05949662 13.7632729,4.86494862 13.7181189,4.57980741 C13.6152762,3.93037195 13.2746961,3.34287442 12.7458597,2.92970218 C12.2171876,2.51665826 11.5649877,2.32830982 10.9101559,2.3854677 C10.6225551,2.41057132 10.3690581,2.19777533 10.3439545,1.91017455 C10.3188509,1.62257377 10.5316469,1.36907677 10.8192476,1.34397315 Z" id="形状结合" fill="url(#linearGradient-1)"></path>
        </g>
    </g>
</svg>