<?xml version="1.0" encoding="UTF-8"?>
<svg width="16px" height="16px" viewBox="0 0 16 16" version="1.1" xmlns="http://www.w3.org/2000/svg" xmlns:xlink="http://www.w3.org/1999/xlink">
    <title>✧ Icon/AlarmSelfhealing</title>
    <defs>
        <linearGradient x1="156.309328%" y1="152.86906%" x2="33.0753737%" y2="27.3563231%" id="linearGradient-1">
            <stop stop-color="#0019F4" offset="0%"></stop>
            <stop stop-color="#8A62FF" offset="100%"></stop>
        </linearGradient>
    </defs>
    <g id="Symbols" stroke="none" stroke-width="1" fill="none" fill-rule="evenodd">
        <g id="✧-Icon/AlarmSelfhealing">
            <rect id="矩形" fill="#FFFFFF" opacity="0" x="0" y="0" width="16" height="16"></rect>
            <path d="M12.8,1 C13.4627417,1 14,1.5372583 14,2.2 L14,13.8 C14,14.4627417 13.4627417,15 12.8,15 L3.2,15 C2.5372583,15 2,14.4627417 2,13.8 L2,2.2 C2,1.5372583 2.5372583,1 3.2,1 L12.8,1 Z" id="路径" fill="url(#linearGradient-1)" transform="translate(8.000000, 8.000000) rotate(-270.000000) translate(-8.000000, -8.000000) "></path>
            <path d="M3.54444604,5.27952518 C3.73613785,5.05588473 4.0567199,5.00801402 4.30229735,5.15159728 L4.39047482,5.21444604 L6.72380816,7.21444604 C6.97523837,7.42995765 7.00038139,7.80158533 6.79923722,8.04832015 L6.72380816,8.12555396 L4.39047482,10.125554 C4.13887932,10.3412073 3.76009933,10.3120703 3.54444604,10.0604748 C3.35275422,9.83683437 3.3544769,9.51270248 3.53392985,9.29197397 L3.60952518,9.21444604 L5.411,7.67 L3.60952518,6.12555396 C3.38588473,5.93386215 3.33801402,5.6132801 3.48159728,5.36770265 L3.54444604,5.27952518 Z" id="路径" fill="#FFFFFF"></path>
            <path d="M12,9.73666667 C12.3313708,9.73666667 12.6,10.0052958 12.6,10.3366667 C12.6,10.6349004 12.3824104,10.8823134 12.0973231,10.9288137 L12,10.9366667 L7.66666667,10.9366667 C7.33529582,10.9366667 7.06666667,10.6680375 7.06666667,10.3366667 C7.06666667,10.0384329 7.28425628,9.79101991 7.56934355,9.74451965 L7.66666667,9.73666667 L12,9.73666667 Z" id="路径" fill="#FFFFFF"></path>
        </g>
    </g>
</svg>