<?xml version="1.0" encoding="UTF-8"?>
<svg width="16px" height="16px" viewBox="0 0 16 16" version="1.1" xmlns="http://www.w3.org/2000/svg" xmlns:xlink="http://www.w3.org/1999/xlink">
    <title>✧ Icon/Dashboard</title>
    <defs>
        <linearGradient x1="-53.8488671%" y1="193.396074%" x2="76.8302348%" y2="24.2845748%" id="linearGradient-1">
            <stop stop-color="#0019F4" offset="0%"></stop>
            <stop stop-color="#8A62FF" offset="100%"></stop>
        </linearGradient>
    </defs>
    <g id="Symbols" stroke="none" stroke-width="1" fill="none" fill-rule="evenodd">
        <g id="✧-Icon/Dashboard">
            <rect id="矩形" fill="#FFFFFF" opacity="0" x="0" y="0" width="16" height="16"></rect>
            <path d="M8,2 C4.13399925,2 1,5.13400575 1,9 C1,10.8660873 1.62673008,12.5790639 2.75892786,13.806769 C2.87252053,13.9299439 3.03244423,14 3.2000012,14 L12.7999988,14 C12.9675545,14 13.1274771,13.9299452 13.2410697,13.806772 C14.3732754,12.5790732 15,10.8661013 15,9 C15,5.1340073 11.8659927,2 8,2 Z" id="路径" fill="url(#linearGradient-1)"></path>
            <path d="M7.9999952,8.08000456 C6.96169934,8.08000456 6.11999424,8.92170966 6.11999424,9.96000552 C6.11999424,10.9983014 6.96169934,11.8400065 7.9999952,11.8400065 C9.03829106,11.8400065 9.87999616,10.9983014 9.87999616,9.96000552 C9.87999616,8.92170966 9.03829106,8.08000456 7.9999952,8.08000456 Z M7.9999952,9.28000456 C8.37554936,9.28000456 8.67999616,9.58445136 8.67999616,9.96000552 C8.67999616,10.3355597 8.37554936,10.6400065 7.9999952,10.6400065 C7.62444104,10.6400065 7.31999424,10.3355597 7.31999424,9.96000552 C7.31999424,9.58445136 7.62444104,9.28000456 7.9999952,9.28000456 Z" id="椭圆形" fill="#FFFFFF" fill-rule="nonzero"></path>
            <path d="M7.9999952,4.200003 C8.29822896,4.200003 8.54564195,4.41759273 8.59214221,4.70268 L8.5999952,4.800003 L8.5999952,8.68000456 C8.5999952,9.01137541 8.33136605,9.28000456 7.9999952,9.28000456 C7.70176144,9.28000456 7.45434845,9.06241495 7.40784819,8.77732768 L7.3999952,8.68000456 L7.3999952,4.800003 C7.3999952,4.46863215 7.66862435,4.200003 7.9999952,4.200003 Z" id="路径" fill="#FFFFFF" fill-rule="nonzero"></path>
        </g>
    </g>
</svg>