<?xml version="1.0" encoding="UTF-8"?>
<svg width="16px" height="16px" viewBox="0 0 16 16" version="1.1" xmlns="http://www.w3.org/2000/svg" xmlns:xlink="http://www.w3.org/1999/xlink">
    <title>Dial-Up Analysis-Hover</title>
    <defs>
        <linearGradient x1="-74.6946211%" y1="233.796387%" x2="81.0022805%" y2="16.791002%" id="linearGradient-1">
            <stop stop-color="#0019F4" offset="0%"></stop>
            <stop stop-color="#8A62FF" offset="100%"></stop>
        </linearGradient>
    </defs>
    <g id="页面-1" stroke="none" stroke-width="1" fill="none" fill-rule="evenodd">
        <g id="Dial-Up-Analysis-Hover">
            <rect id="矩形" fill="#FFFFFF" opacity="0" x="0" y="0" width="16" height="16"></rect>
            <g id="编组" transform="translate(1.600000, 1.600000)" fill="url(#linearGradient-1)">
                <path d="M11.6,0 C12.2627417,0 12.8,0.537258322 12.8,1.20000005 L12.8,11.6 C12.8,12.2627417 12.2627417,12.8 11.6,12.8 L1.20000005,12.8 C0.537258322,12.8 0,12.2627417 0,11.6 L0,1.20000005 C0,0.537258322 0.537258322,0 1.20000005,0 L11.6,0 Z M9.988732,4.234187 L7.988732,4.234187 L7.89140888,4.24203999 C7.60632161,4.28854025 7.388732,4.53595324 7.388732,4.834187 L7.388732,4.834187 L7.39658499,4.93151012 C7.44308525,5.21659739 7.69049824,5.434187 7.988732,5.434187 L7.988732,5.434187 L8.51,5.434 L7.11436256,6.84485504 L5.94239436,5.10746143 L5.87915417,5.02863039 C5.65106775,4.78854776 5.26049004,4.77631007 5.01841898,5.02101429 L5.01841898,5.02101429 L2.48273763,7.58427785 L2.41987591,7.65898972 C2.2524402,7.89436667 2.27530682,8.22305427 2.48732758,8.43279357 L2.48732758,8.43279357 L2.56203945,8.49565529 C2.7974164,8.663091 3.12610401,8.64022438 3.33584331,8.42820362 L3.33584331,8.42820362 L5.35680632,6.38504957 L6.52918565,8.12336527 L6.59242584,8.20219632 C6.82051227,8.44227895 7.21108997,8.45451664 7.45316104,8.20981242 L7.45316104,8.20981242 L9.388,6.253 L9.388732,6.834187 L9.39658499,6.93151012 C9.44308525,7.21659739 9.69049824,7.434187 9.988732,7.434187 C10.3201028,7.434187 10.588732,7.16555785 10.588732,6.834187 L10.588732,6.834187 L10.588732,4.834187 L10.580879,4.73686388 C10.5343788,4.45177661 10.2869658,4.234187 9.988732,4.234187 L9.988732,4.234187 Z" id="形状结合"></path>
            </g>
        </g>
    </g>
</svg>