<?xml version="1.0" encoding="UTF-8"?>
<svg width="16px" height="17px" viewBox="0 0 16 17" version="1.1" xmlns="http://www.w3.org/2000/svg" xmlns:xlink="http://www.w3.org/1999/xlink">
    <title>数据集成-Hover</title>
    <defs>
        <linearGradient x1="-53.8470247%" y1="239.435234%" x2="76.7203263%" y2="24.2012084%" id="linearGradient-1">
            <stop stop-color="#0019F4" offset="0%"></stop>
            <stop stop-color="#8A62FF" offset="100%"></stop>
        </linearGradient>
    </defs>
    <g id="页面-1" stroke="none" stroke-width="1" fill="none" fill-rule="evenodd">
        <g id="✧-Icon/IntegrationCenter" transform="translate(0.000000, 0.500000)">
            <rect id="矩形" fill-opacity="0" fill="#FFFFFF" opacity="0" x="0" y="0" width="16" height="16"></rect>
            <path d="M7.8,1.2 C8.62842712,1.2 9.3,1.87157288 9.3,2.7 C9.3,3.31518024 8.92966968,3.84386519 8.39978159,4.0752823 L8.39934691,4.81747741 C10.6975665,5.01957243 12.5,6.94929577 12.5,9.3 C12.5,10.1610256 12.2581782,10.9655707 11.8387461,11.6494239 L12.4980762,12.030385 C12.5338442,12.0510356 12.5666816,12.0748129 12.5964424,12.1011723 C12.8462906,11.9121291 13.1586079,11.8 13.4971143,11.8 C14.3255414,11.8 14.9971143,12.4715729 14.9971143,13.3 C14.9971143,14.1284271 14.3255414,14.8 13.4971143,14.8 C12.6686872,14.8 11.9971143,14.1284271 11.9971143,13.3 C11.9971143,13.2381358 12.0008594,13.1771463 12.0081353,13.1172459 L11.9527489,13.0973663 L11.9527489,13.0973663 L11.8980762,13.0696155 L11.0691616,12.5909573 C10.2652456,13.3410174 9.18622334,13.8 8,13.8 C6.8132903,13.8 5.73386965,13.340641 4.92984975,12.5900346 L4.09903811,13.0696155 C4.06308732,13.0903717 4.02588137,13.1069846 3.98797319,13.1196023 C3.9962549,13.1771463 4,13.2381358 4,13.3 C4,14.1284271 3.32842712,14.8 2.5,14.8 C1.67157288,14.8 1,14.1284271 1,13.3 C1,12.4715729 1.67157288,11.8 2.5,11.8 C2.83850646,11.8 3.15082376,11.9121291 3.40183567,12.1012712 C3.43024188,12.0749512 3.46316616,12.0510957 3.49903811,12.030385 L4.16063263,11.6484107 C3.74158301,10.9647761 3.5,10.1606004 3.5,9.3 C3.5,7.08796035 5.09605954,5.24870037 7.19939101,4.87100768 L7.19921121,4.07484199 C6.66986111,3.84319509 6.3,3.31479039 6.3,2.7 C6.3,1.87157288 6.97157288,1.2 7.8,1.2 Z" id="形状结合" fill="url(#linearGradient-1)"></path>
        </g>
    </g>
</svg>