<?xml version="1.0" encoding="UTF-8"?>
<svg width="36px" height="36px" viewBox="0 0 36 36" version="1.1" xmlns="http://www.w3.org/2000/svg" xmlns:xlink="http://www.w3.org/1999/xlink">
    <title>自定义</title>
    <g id="数据源" stroke="none" stroke-width="1" fill="none" fill-rule="evenodd">
        <g id="系统设置_数据源管理_时序数据源" transform="translate(-1260.000000, -493.000000)" fill="#6C53B1">
            <g id="自定义" transform="translate(1260.000000, 493.000000)">
                <path d="M17.999996,22.2881384 C15.6350348,22.2881384 13.7117617,20.3648859 13.7117617,17.99995 C13.7117617,15.6350141 15.6350348,13.7117617 17.999996,13.7117617 C20.3649572,13.7117617 22.2882303,15.6350141 22.2882303,17.99995 C22.2882303,20.3648859 20.3649572,22.2881384 17.999996,22.2881384 M18.0041435,10.5383341 C13.8819785,10.5383341 10.5387073,13.8815694 10.5387073,18.0036902 C10.5387073,22.125811 13.8819785,25.4690463 18.0041435,25.4690463 C22.1263084,25.4690463 25.4695796,22.125811 25.4695796,18.0036902 C25.4695796,13.8815694 22.1263084,10.5383341 18.0041435,10.5383341" id="Fill-2"></path>
                <path d="M25.4016288,26.6397562 C24.8840047,27.0367321 24.331088,27.3904241 23.7468001,27.7020687 C23.6971291,27.7280391 23.6500724,27.7601929 23.5990943,27.7861633 C23.1533624,28.01495 22.6854093,28.2078729 22.2083062,28.3810088 L21.4096488,31.2018876 L21.0305806,32.5387442 C21.0070523,32.5436909 20.9835239,32.5498744 20.9586884,32.5535844 C20.8397394,32.5758447 20.7207905,32.5968684 20.6018415,32.6166554 C20.458057,32.6401524 20.3116583,32.6587026 20.1665666,32.6784896 C19.9155974,32.7118801 19.6659352,32.7415606 19.4136588,32.7625842 C19.2737958,32.774951 19.1339327,32.7848445 18.9927625,32.7922646 C18.8751206,32.7996848 18.7587859,32.8046315 18.641144,32.8095782 C18.4280816,32.818235 18.213712,32.8231818 17.9993424,32.8231818 C17.78628,32.8231818 17.5719104,32.818235 17.3588479,32.8095782 C17.2412061,32.8046315 17.1235642,32.7996848 17.0072295,32.7922646 C16.8660593,32.7848445 16.7261962,32.774951 16.585026,32.7625842 C16.3340567,32.7415606 16.0830875,32.7118801 15.8334253,32.6784896 C15.6883337,32.6587026 15.5432421,32.6401524 15.3981505,32.6166554 C15.2792015,32.5968684 15.1602526,32.5758447 15.0413036,32.5535844 C15.0164681,32.5498744 14.9929397,32.5436909 14.9694113,32.5387442 L14.5903432,31.2018876 L13.7903786,28.3810088 C13.1668768,28.1534588 12.5695177,27.877678 12.0022226,27.5573766 C11.9460159,27.5264594 11.8911164,27.4943056 11.8362168,27.4621518 C11.4048634,27.209868 10.9891956,26.9402707 10.5983632,26.6397562 L7.61810312,27.3953708 L6.20640097,27.7527728 C6.19071539,27.7354592 6.17372268,27.7193823 6.1580371,27.700832 C6.07830207,27.6155008 5.99856704,27.5289328 5.92144628,27.4398915 C5.8273328,27.3335366 5.73714072,27.2222349 5.64564151,27.1121699 C5.49139998,26.9241938 5.33977271,26.734981 5.1946811,26.5408214 C5.11233181,26.4307564 5.03259678,26.3194548 4.95416888,26.2069164 C4.89011943,26.1166384 4.82737711,26.0226503 4.7646348,25.9298989 C4.65091435,25.7592364 4.53850103,25.5873372 4.43131623,25.4117279 C4.32413144,25.2361186 4.22217517,25.0592726 4.1241403,24.8799533 C4.06924078,24.7810185 4.01564838,24.6820837 3.96336311,24.5831489 C3.9006208,24.4631904 3.83787848,24.3432319 3.77905756,24.2220368 C3.6731799,24.0056169 3.57514502,23.785487 3.48103155,23.5641203 C3.42613202,23.4355051 3.37123249,23.3068898 3.31894723,23.1782746 C3.27711902,23.0694463 3.23790507,22.960618 3.19738399,22.8517897 C3.1895412,22.8295294 3.18300554,22.807269 3.17646988,22.7862454 L4.20518246,21.8129742 L6.39332079,19.74029 C6.3070501,19.2184088 6.25084345,18.6866342 6.24300066,18.1437295 C6.24300066,18.0954988 6.23515787,18.0485047 6.23515787,18.000274 C6.23515787,17.9508066 6.24300066,17.9050492 6.24300066,17.8555818 C6.25084345,17.3126771 6.3070501,16.7809025 6.39332079,16.2590214 L4.20518246,14.1875738 L3.17646988,13.2143026 C3.18300554,13.1920423 3.1895412,13.1697819 3.19869112,13.1475216 C3.23790507,13.0386933 3.27711902,12.9311017 3.31894723,12.8222734 C3.37123249,12.6924215 3.42613202,12.5638062 3.48103155,12.4339543 C3.57514502,12.2138244 3.6731799,11.9949311 3.77905756,11.7785112 C3.83787848,11.6573161 3.89931367,11.5373576 3.96336311,11.4161625 C4.01564838,11.3172276 4.06924078,11.2182928 4.1241403,11.119358 C4.22217517,10.9400387 4.32413144,10.7631927 4.43131623,10.5888201 C4.53850103,10.4132108 4.64960721,10.2400749 4.7646348,10.0694124 C4.82737711,9.9754243 4.89142656,9.88267292 4.95547601,9.78992153 C5.03259678,9.67985656 5.11233181,9.5685549 5.19337397,9.45972661 C5.33846558,9.26556705 5.49139998,9.07511754 5.64564151,8.8871414 C5.73714072,8.77707643 5.8273328,8.66701145 5.92144628,8.55941985 C5.99856704,8.4716152 6.07830207,8.38504725 6.1580371,8.29847929 C6.17372268,8.2811657 6.19071539,8.2638521 6.20640097,8.24653851 L7.61810312,8.6051772 L10.5983632,9.35955511 C10.9891956,9.05904063 11.4048634,8.78944328 11.8362168,8.53715951 C11.8911164,8.5050057 11.9460159,8.47408857 12.0022226,8.44193476 C12.5695177,8.12163332 13.1668768,7.84585254 13.7903786,7.61953916 L14.5903432,4.79742373 L14.9694113,3.46056712 C14.9929397,3.45562038 15.0177752,3.45067364 15.0413036,3.4457269 C15.1602526,3.42470326 15.2778944,3.40244292 15.3968434,3.38265596 C15.541935,3.36039563 15.6896409,3.34060867 15.8360396,3.32205839 C16.0857017,3.28866789 16.3340567,3.25898745 16.585026,3.23672712 C16.7248891,3.22436027 16.8647522,3.21570347 17.0059224,3.20704668 C17.1235642,3.19962657 17.2425132,3.19467982 17.3614622,3.19096977 C17.5732175,3.18231297 17.78628,3.17612955 17.9993424,3.17612955 C18.2124049,3.17612955 18.4267745,3.18231297 18.6385298,3.19096977 C18.7574788,3.19467982 18.8764277,3.19962657 18.9940696,3.20704668 C19.1352398,3.21570347 19.2751029,3.22436027 19.414966,3.23672712 C19.6646281,3.25898745 19.9142902,3.28866789 20.1626453,3.32205839 C20.3103511,3.34060867 20.4567499,3.35915895 20.6031486,3.38265596 C20.7220976,3.40244292 20.8397394,3.42470326 20.9586884,3.4457269 C20.9835239,3.45067364 21.0070523,3.45562038 21.0305806,3.46056712 L21.4096488,4.79742373 L22.2083062,7.61830248 C22.6854093,7.79267508 23.1533624,7.98436127 23.5990943,8.21314801 C23.6500724,8.2391184 23.6971291,8.27127221 23.7468001,8.2972426 C24.331088,8.60888725 24.8840047,8.96257919 25.4016288,9.35955511 L28.3818889,8.60394051 L29.7922839,8.24653851 C29.8092766,8.26508879 29.8262693,8.2811657 29.8419549,8.29847929 C29.9216899,8.38504725 30.0014249,8.4716152 30.0785457,8.55941985 C30.171352,8.66577477 30.2615441,8.77707643 30.3530433,8.88590472 C30.508592,9.07388085 30.6602193,9.26433036 30.806618,9.45972661 C30.8876602,9.5685549 30.9660881,9.67985656 31.044516,9.78992153 C31.1085654,9.88267292 31.1726149,9.9754243 31.2353572,10.0694124 C31.3503848,10.2400749 31.461491,10.4132108 31.5686757,10.5888201 C31.6745534,10.7631927 31.7765097,10.9400387 31.8758517,11.119358 C31.9307512,11.2182928 31.9843436,11.3172276 32.0366289,11.4161625 C32.1006783,11.5373576 32.1608064,11.6573161 32.2209344,11.7785112 C32.325505,11.9949311 32.4235398,12.2125877 32.5176533,12.4339543 C32.5725528,12.5638062 32.6287595,12.6924215 32.6810448,12.8235101 C32.722873,12.9311017 32.7620869,13.0386933 32.8013009,13.1475216 C32.8091437,13.1697819 32.8156793,13.1920423 32.8235221,13.2143026 L31.7948095,14.1875738 L29.6053641,16.2590214 C29.683792,16.7252516 29.7321558,17.2001387 29.7478414,17.6849193 C29.7504557,17.7900375 29.763527,17.8939191 29.763527,18.000274 C29.763527,18.1066289 29.7504557,18.2092738 29.7478414,18.3156287 C29.7321558,18.7991726 29.683792,19.2740597 29.6053641,19.74029 L31.7948095,21.8129742 L32.8235221,22.7862454 C32.8156793,22.807269 32.8091437,22.8307661 32.8013009,22.8517897 C32.7620869,22.960618 32.722873,23.0682096 32.6810448,23.1758012 C32.6287595,23.3068898 32.57386,23.4355051 32.5176533,23.565357 C32.424847,23.785487 32.325505,24.0056169 32.2209344,24.2220368 C32.1608064,24.3432319 32.0993712,24.4631904 32.0366289,24.5831489 C31.9843436,24.6820837 31.9307512,24.7810185 31.8758517,24.8799533 C31.7765097,25.0592726 31.6745534,25.2361186 31.5686757,25.4117279 C31.461491,25.5873372 31.3490776,25.7592364 31.2353572,25.9298989 C31.1726149,26.0226503 31.1098725,26.1166384 31.0458231,26.2069164 C30.9673952,26.3194548 30.8876602,26.4307564 30.8053109,26.5408214 C30.6602193,26.7362176 30.508592,26.9254305 30.3530433,27.1134066 C30.2615441,27.2234716 30.171352,27.3335366 30.0785457,27.4398915 C30.0014249,27.5289328 29.9216899,27.6142641 29.8419549,27.700832 C29.8262693,27.7193823 29.8092766,27.7354592 29.7922839,27.7527728 L28.3818889,27.3953708 L25.4016288,26.6397562 Z M32.5150117,18.8575672 C32.5322182,18.5721387 32.5586898,18.2892816 32.5586898,18 C32.5586898,17.7094246 32.5322182,17.4265675 32.5150117,17.141139 L33.7221146,15.9685679 C35.2407049,14.7058333 36,13.968262 36,13.7558541 C36,13.4372422 35.5446812,12.2117116 35.2376112,11.4518546 C34.9014224,10.6199976 34.5215556,9.79714067 34.0477148,9 C33.5738739,8.20285532 33.0298834,7.46999834 32.4567743,6.77185563 C31.9326375,6.13414149 31.1227554,5.16350006 30.7824484,4.97828461 C30.555577,4.85480764 29.5249511,5.12309329 27.6905707,5.78314157 L27.6720406,5.78828442 L26.0400692,6.21257004 C25.5450511,5.89371297 25.024885,5.61214161 24.4901596,5.35371309 L24.0507318,3.75814202 C23.6815926,1.86934081 23.4036413,0.861769601 23.2168778,0.735428408 C22.9367326,0.545916618 21.611378,0.345857066 20.7814947,0.223714236 C19.8708732,0.08999998 18.9483395,0 17.9993342,0 C17.0516525,0 16.1277952,0.08999998 15.2184973,0.223714236 C14.3872904,0.345857066 13.0023133,0.569798709 12.7831142,0.735428408 C12.6369815,0.845848207 12.3607949,1.84699084 11.9545545,3.73885631 L11.5085088,5.35371309 C10.9737834,5.61342732 10.4536173,5.89499869 9.9585992,6.21385576 L8.32927496,5.78957014 C6.4643895,5.10794838 5.42714571,4.83751987 5.2175436,4.97828461 C4.90314043,5.18943171 4.06735451,6.13414149 3.54321771,6.77185563 C2.96878496,7.46999834 2.42611807,8.20285532 1.95227722,9 C1.47843638,9.79714067 1.09724598,10.6199976 0.761057222,11.4518546 C0.455310756,12.2117116 0,13.4463152 0,13.7558541 C0,13.9622133 0.754439333,14.6950703 2.263318,15.954425 L3.48498029,17.1424248 C3.46777378,17.4278533 3.43997864,17.7107103 3.43997864,18 C3.43997864,18.2892816 3.46777378,18.570853 3.48498029,18.8562815 L2.27787736,20.0288527 C0.759292452,21.2471823 0,21.9851821 0,22.2428522 C0,22.6293573 0.455310756,23.7882804 0.761057222,24.5468517 C1.09724598,25.3787086 1.47843638,26.2028513 1.95227722,27 C2.42611807,27.7971367 2.96878496,28.5287079 3.54321771,29.2268506 C4.06735451,29.8645648 4.97644156,30.9310699 5.2175436,31.0204217 C5.3782783,31.0799895 6.408463,30.8117038 8.30809771,30.2155647 L8.3266278,30.2104218 L9.9585992,29.7861362 C10.4536173,30.1049933 10.9737834,30.3852789 11.5085088,30.6449932 L11.9492602,32.2405642 C12.3881538,34.1544451 12.6661051,35.1620163 12.7831142,35.2632779 C12.9586278,35.4151702 14.3872904,35.6541349 15.2184973,35.774992 C16.1277952,35.9087063 17.0516525,36 17.9993342,36 C18.9483395,36 19.8708732,35.9087063 20.7814947,35.774992 C21.611378,35.6541349 22.9612942,35.4220991 23.2168778,35.2632779 C23.3872668,35.157397 23.6634534,34.1562544 24.0454375,32.25985 L24.4901596,30.6462789 C25.024885,30.3865647 25.5450511,30.1049933 26.0400692,29.7861362 L27.670717,30.2104218 C29.5166564,30.8817649 30.5539002,31.1517648 30.7824484,31.0204217 C31.1252706,30.8234069 31.9326375,29.8645648 32.4567743,29.2268506 C33.0298834,28.5287079 33.5738739,27.7971367 34.0477148,27 C34.5215556,26.2028513 34.9014224,25.3787086 35.2376112,24.5468517 C35.5446812,23.7882804 36,22.5632476 36,22.2428522 C36,22.0292552 35.245558,21.2963982 33.736674,20.0442812 L32.5150117,18.8575672 Z" id="Fill-1"></path>
            </g>
        </g>
    </g>
</svg>