<?xml version="1.0" encoding="UTF-8"?>
<svg width="132px" height="64px" viewBox="0 0 132 64" version="1.1" xmlns="http://www.w3.org/2000/svg" xmlns:xlink="http://www.w3.org/1999/xlink">
    <title>influxdb</title>
    <g id="页面-1" stroke="none" stroke-width="1" fill="none" fill-rule="evenodd">
        <g id="系统设置_事件源管理" transform="translate(-288.000000, -866.000000)">
            <g id="influxdb" transform="translate(288.000000, 866.000000)">
                <rect id="矩形" fill="#FFFFFF" opacity="0" x="0" y="0" width="132" height="64"></rect>
                <g id="influxdb_logo" transform="translate(44.000000, 9.615000)" fill="#D30971">
                    <path d="M32.6711145,30.8683877 L43.0420209,28.4954355 C43.2045905,28.464613 43.3589847,28.400149 43.4951484,28.3061781 C43.6313122,28.2122073 43.7463326,28.0907969 43.8327857,27.9496527 C43.9165138,27.8092602 43.9703591,27.6530806 43.9909387,27.4908869 C44.0110485,27.3289751 43.9976106,27.164808 43.951377,27.0083465 L39.5429218,7.8784347 C39.5039239,7.72164431 39.4341976,7.57415704 39.3377835,7.44449604 C39.2414633,7.31483505 39.1203349,7.20557512 38.9814459,7.12304051 C38.7020706,6.95612946 38.3680981,6.90637189 38.052262,6.98461203 L27.6853963,9.35756428 C27.3728493,9.44058754 27.1048444,9.64206107 26.93814,9.91918115 C26.7723754,10.1976168 26.7240744,10.5305556 26.8036677,10.8446062 L31.2002825,29.9745369 C31.2796879,30.2906548 31.4812554,30.5624186 31.7607248,30.7299686 C32.0401941,30.8976127 32.3747304,30.9473232 32.6909423,30.8683877 L32.6711145,30.8683877 Z" id="路径"></path>
                    <path d="M29.0969327,42.6897344 L41.6700463,31.0464625 C42.1445052,30.5678689 42.025914,30.2752436 41.3696215,30.5085733 L32.7305041,32.4860022 C32.3729449,32.5744287 32.0435771,32.7516578 31.7726591,33.0012444 C31.5017411,33.2507371 31.2981062,33.5645997 31.1805487,33.9137955 L28.5591374,42.3495599 C28.3812506,42.9902533 28.618527,43.1682341 29.0969327,42.6897344 Z" id="路径"></path>
                    <path d="M6.16084377,38.8889889 L24.9849556,44.7105779 C25.3069938,44.7719408 25.6403084,44.7159342 25.9246643,44.5527068 C26.2089261,44.3894794 26.425435,44.1298379 26.5349111,43.8207678 L29.6979703,33.7198396 C29.74411,33.5621565 29.7588635,33.3968617 29.7413849,33.2334464 C29.7015412,32.905676 29.5356827,32.6063788 29.2788603,32.3989851 C29.1493684,32.2970268 29.0018342,32.2205345 28.8439631,32.173549 L10.0197197,26.4111617 C9.70040671,26.3207617 9.35833397,26.3591019 9.06689273,26.5180066 C8.77692684,26.6784148 8.5622598,26.9471715 8.46985825,27.2654508 L5.33448279,37.3465511 C5.24364116,37.6612595 5.27910576,37.9988969 5.43333074,38.2878573 C5.58659722,38.5767237 5.84827789,38.7929507 6.16084377,38.8889889 L6.16084377,38.8889889 Z" id="路径"></path>
                    <path d="M0.0798671114,18.2126737 L3.89924699,34.9301843 C4.01786642,35.582718 4.32626,35.582718 4.49232531,34.9301843 L7.11370833,26.4903791 C7.20183421,26.1312225 7.20482248,25.7564667 7.12244762,25.3959945 C7.04007276,25.0354283 6.87459947,24.6992005 6.63924944,24.4139989 L0.617581456,17.9161017 C0.194521808,17.4256677 -0.109916539,17.56014 0.0798671114,18.2126737 Z" id="路径"></path>
                    <path d="M14.7999236,0.344329155 L0.380334156,13.6843117 C0.148170679,13.9042036 0.0118307965,14.2066958 0.000734210113,14.5263847 C-0.0103623964,14.8460735 0.104689421,15.157305 0.32104136,15.392796 L7.52885281,23.1919079 C7.75035154,23.4310637 8.05725098,23.5731477 8.38288821,23.5873373 C8.54359718,23.5931634 8.7038551,23.5671335 8.85448099,23.510751 C9.00510689,23.4544625 9.1431125,23.368949 9.26062307,23.259097 L23.6762234,9.88751297 C23.7955664,9.78104398 23.8919805,9.65155213 23.9599215,9.50674303 C24.0279564,9.36198092 24.0659206,9.2049744 24.0716528,9.04514875 C24.0826474,8.72558203 23.9676271,8.41449149 23.7514001,8.1790193 L16.5553933,0.383881492 C16.4440378,0.265471625 16.3093776,0.17124704 16.1600579,0.107044267 C16.0119598,0.0407177517 15.8522093,0.00445967847 15.6899216,0.00038623699 C15.5277279,-0.00368720261 15.366286,0.024493964 15.2150868,0.0833033738 C15.0610686,0.142580289 14.9201123,0.231234281 14.7999236,0.344329155 L14.7999236,0.344329155 Z" id="路径"></path>
                    <path d="M28.7371183,30.5677749 C29.3974515,30.7497025 29.808574,30.3937409 29.634634,29.7175265 L25.4633613,11.6553868 C25.2853805,11.0028532 24.7476792,10.8248723 24.2771671,11.2954784 L10.6918933,23.9196182 C10.2134876,24.3902243 10.3360256,24.9241668 10.9883714,25.1060944 L28.7371183,30.5677749 Z" id="路径"></path>
                    <path d="M35.830227,5.37891309 L19.3862655,0.344297205 C18.7339198,0.166325786 18.5955007,0.407576245 19.1451363,0.937535268 L25.1667893,7.41569397 C25.4362037,7.66951867 25.7632223,7.85410564 26.1196538,7.9535738 C26.4750516,8.05353061 26.8492436,8.06708121 27.2109375,7.99310734 L35.8499609,6.01565027 C36.4866135,5.85349414 36.4866135,5.55292834 35.830227,5.37891309 Z" id="路径"></path>
                </g>
            </g>
        </g>
    </g>
</svg>