<?xml version="1.0" encoding="UTF-8"?>
<svg width="90px" height="104px" viewBox="0 0 90 104" version="1.1" xmlns="http://www.w3.org/2000/svg" xmlns:xlink="http://www.w3.org/1999/xlink">
    <title>loki</title>
    <defs>
        <linearGradient x1="92.1760357%" y1="320.699038%" x2="-111.5133%" y2="-1002.99914%" id="linearGradient-1">
            <stop stop-color="#FAED1E" offset="0%"></stop>
            <stop stop-color="#F15B2B" offset="100%"></stop>
        </linearGradient>
        <linearGradient x1="65.9232909%" y1="87.7539666%" x2="14.4490628%" y2="-35.244957%" id="linearGradient-2">
            <stop stop-color="#FAED1E" offset="0%"></stop>
            <stop stop-color="#F15B2B" offset="100%"></stop>
        </linearGradient>
        <linearGradient x1="113.041573%" y1="456.359997%" x2="-90.6477628%" y2="-867.338181%" id="linearGradient-3">
            <stop stop-color="#FAED1E" offset="0%"></stop>
            <stop stop-color="#F15B2B" offset="100%"></stop>
        </linearGradient>
        <linearGradient x1="92.1485533%" y1="320.642488%" x2="-111.540782%" y2="-1003.05569%" id="linearGradient-4">
            <stop stop-color="#FAED1E" offset="0%"></stop>
            <stop stop-color="#F15B2B" offset="100%"></stop>
        </linearGradient>
        <linearGradient x1="112.978291%" y1="456.368494%" x2="-90.4979808%" y2="-867.329684%" id="linearGradient-5">
            <stop stop-color="#FAED1E" offset="0%"></stop>
            <stop stop-color="#F15B2B" offset="100%"></stop>
        </linearGradient>
        <linearGradient x1="60.6629155%" y1="75.1474696%" x2="9.18868742%" y2="-47.8514539%" id="linearGradient-6">
            <stop stop-color="#FAED1E" offset="0%"></stop>
            <stop stop-color="#F15B2B" offset="100%"></stop>
        </linearGradient>
        <linearGradient x1="92.1292577%" y1="320.690541%" x2="-111.347014%" y2="-1003.00764%" id="linearGradient-7">
            <stop stop-color="#FAED1E" offset="0%"></stop>
            <stop stop-color="#F15B2B" offset="100%"></stop>
        </linearGradient>
        <linearGradient x1="113.069055%" y1="456.311944%" x2="-90.6202803%" y2="-867.386234%" id="linearGradient-8">
            <stop stop-color="#FAED1E" offset="0%"></stop>
            <stop stop-color="#F15B2B" offset="100%"></stop>
        </linearGradient>
        <linearGradient x1="53.7121435%" y1="167.253539%" x2="48.0495684%" y2="-12.3594255%" id="linearGradient-9">
            <stop stop-color="#FAED1E" offset="0%"></stop>
            <stop stop-color="#F15B2B" offset="100%"></stop>
        </linearGradient>
        <linearGradient x1="53.6497002%" y1="167.318786%" x2="48.0801855%" y2="-12.3985579%" id="linearGradient-10">
            <stop stop-color="#FAED1E" offset="0%"></stop>
            <stop stop-color="#F15B2B" offset="100%"></stop>
        </linearGradient>
        <linearGradient x1="53.6027751%" y1="167.384502%" x2="48.1037262%" y2="-12.4324372%" id="linearGradient-11">
            <stop stop-color="#FAED1E" offset="0%"></stop>
            <stop stop-color="#F15B2B" offset="100%"></stop>
        </linearGradient>
        <linearGradient x1="53.6814623%" y1="167.304036%" x2="48.0653435%" y2="-12.3813936%" id="linearGradient-12">
            <stop stop-color="#FAED1E" offset="0%"></stop>
            <stop stop-color="#F15B2B" offset="100%"></stop>
        </linearGradient>
        <linearGradient x1="53.7910225%" y1="167.180755%" x2="48.010248%" y2="-12.3255165%" id="linearGradient-13">
            <stop stop-color="#FAED1E" offset="0%"></stop>
            <stop stop-color="#F15B2B" offset="100%"></stop>
        </linearGradient>
        <linearGradient x1="53.7546639%" y1="167.218451%" x2="48.0279152%" y2="-12.3497876%" id="linearGradient-14">
            <stop stop-color="#FAED1E" offset="0%"></stop>
            <stop stop-color="#F15B2B" offset="100%"></stop>
        </linearGradient>
    </defs>
    <g id="首页" stroke="none" stroke-width="1" fill="none" fill-rule="evenodd">
        <g id="loki" transform="translate(0.040000, 0.000000)" fill-rule="nonzero">
            <polygon id="路径" fill="url(#linearGradient-1)" points="21.19 94.36 12.91 95.64 14.19 103.92 22.47 102.65"></polygon>
            <polygon id="路径" fill="url(#linearGradient-2)" points="51.09 84.97 87.65 79.34 86.37 71.06 49.82 76.68"></polygon>
            <polygon id="路径" fill="url(#linearGradient-3)" points="36.85 78.68 38.12 86.96 46.41 85.69 45.13 77.4"></polygon>
            <polygon id="路径" fill="url(#linearGradient-4)" points="35.44 100.65 34.16 92.37 25.88 93.64 27.15 101.93"></polygon>
            <polygon id="路径" fill="url(#linearGradient-5)" points="12.19 90.95 20.47 89.68 19.2 81.39 10.92 82.67"></polygon>
            <polygon id="路径" fill="url(#linearGradient-6)" points="88.37 84.03 51.81 89.65 53.09 97.94 89.64 92.31"></polygon>
            <polygon id="路径" fill="url(#linearGradient-7)" points="38.85 91.65 40.12 99.93 48.4 98.66 47.13 90.37"></polygon>
            <polygon id="路径" fill="url(#linearGradient-8)" points="25.16 88.96 33.44 87.68 32.17 79.4 23.88 80.67"></polygon>
            <polygon id="路径" fill="url(#linearGradient-9)" points="10.2 77.99 13.69 77.45 3.5 11.17 0 11.71"></polygon>
            <polygon id="路径" fill="url(#linearGradient-10)" points="15 77.25 18.5 76.71 7.56 5.55 4.06 6.09"></polygon>
            <polygon id="路径" fill="url(#linearGradient-11)" points="23.22 75.98 26.71 75.44 15.11 0 11.61 0.54"></polygon>
            <polygon id="路径" fill="url(#linearGradient-12)" points="28.02 75.24 31.52 74.7 20.94 5.92 17.44 6.46"></polygon>
            <polygon id="路径" fill="url(#linearGradient-13)" points="36.13 74 39.63 73.46 30.23 12.36 26.73 12.89"></polygon>
            <polygon id="路径" fill="url(#linearGradient-14)" points="40.94 73.26 44.44 72.72 34.68 9.28 31.18 9.81"></polygon>
        </g>
    </g>
</svg>