<?xml version="1.0" encoding="UTF-8"?>
<svg width="132px" height="64px" viewBox="0 0 132 64" version="1.1" xmlns="http://www.w3.org/2000/svg" xmlns:xlink="http://www.w3.org/1999/xlink">
    <title>opensearch-大</title>
    <g id="页面-1" stroke="none" stroke-width="1" fill="none" fill-rule="evenodd">
        <g id="系统设置_事件源管理" transform="translate(-592.000000, -1746.000000)">
            <g id="opensearch-大" transform="translate(592.000000, 1746.000000)">
                <rect id="矩形" fill="#FFFFFF" opacity="0" x="0" y="0" width="132" height="64"></rect>
                <g id="test" transform="translate(41.000000, 7.000000)" fill-rule="nonzero">
                    <path d="M48.2323437,18.3593766 C47.2560937,18.3593766 46.4646875,19.1507828 46.4646875,20.1270328 C46.4646875,34.6729703 34.6729687,46.4646891 20.1270312,46.4646891 C19.1507812,46.4646891 18.359375,47.2560953 18.359375,48.2323453 C18.359375,49.2085953 19.1507812,50.0000016 20.1270312,50.0000016 C36.6253906,50.0000016 50,36.6253922 50,20.1270328 C50,19.1507828 49.2085937,18.3593766 48.2323437,18.3593766 Z" id="路径" fill="#00A3E0"></path>
                    <path d="M37.5635937,29.6875016 C39.2634375,26.9144547 40.9074219,23.2170328 40.5839844,18.0407047 C39.9139844,7.31820469 30.2022656,-0.816115621 21.0317187,0.0654156294 C17.4416406,0.410525004 13.7553125,3.33687657 14.0828125,8.57851719 C14.2251562,10.8563297 15.34,12.2007047 17.151875,13.2342984 C18.8764062,14.2181266 21.0920312,14.8413297 23.60375,15.5477359 C26.6376562,16.4010953 30.1569531,17.3596109 32.8617969,19.3528922 C36.1035156,21.7418766 38.3196094,24.5111734 37.5635937,29.6875016 Z" id="路径" fill="#B9D9EB"></path>
                    <path d="M3.06141405,10.9375016 C1.36153124,13.7105484 -0.282426575,17.4079703 0.0410102219,22.5842984 C0.710993738,33.3067985 10.4227344,41.4410953 19.5932812,40.559611 C23.1833594,40.2144547 26.8696875,37.2881266 26.5421875,32.0464859 C26.3998437,29.7686734 25.2849219,28.4242984 23.473125,27.3907047 C21.7485937,26.4068766 19.5329687,25.7836734 17.02125,25.0772672 C13.9873437,24.2239078 10.4680469,23.2653922 7.76324218,21.2721109 C4.52146093,18.8831266 2.30540624,16.1138297 3.06141405,10.9375016 Z" id="路径" fill="#00A3E0"></path>
                </g>
            </g>
        </g>
    </g>
</svg>