<?xml version="1.0" encoding="UTF-8"?>
<svg width="1261px" height="1379px" viewBox="0 0 1261 1379" version="1.1" xmlns="http://www.w3.org/2000/svg" xmlns:xlink="http://www.w3.org/1999/xlink">
    <title>SQLserver</title>
    <defs>
        <linearGradient x1="25.8951071%" y1="76.4064363%" x2="38.3411716%" y2="69.6673405%" id="linearGradient-1">
            <stop stop-color="#909CA9" offset="0%"></stop>
            <stop stop-color="#EDEDEE" offset="100%"></stop>
        </linearGradient>
        <linearGradient x1="0.167947727%" y1="49.8457052%" x2="18.5944843%" y2="49.8457052%" id="linearGradient-2">
            <stop stop-color="#939FAB" offset="0%"></stop>
            <stop stop-color="#DCDEE1" offset="100%"></stop>
        </linearGradient>
        <radialGradient cx="44.3461988%" cy="43.8808738%" fx="44.3461988%" fy="43.8808738%" r="12.8105072%" gradientTransform="translate(0.443462,0.438809),scale(0.698399,1.000000),rotate(-171.457413),translate(-0.443462,-0.438809)" id="radialGradient-3">
            <stop stop-color="#EE352C" offset="0%"></stop>
            <stop stop-color="#A91D22" offset="100%"></stop>
        </radialGradient>
    </defs>
    <g id="页面-1" stroke="none" stroke-width="1" fill="none" fill-rule="evenodd">
        <g id="SQLserver" transform="translate(0.683073, 0.000000)" fill-rule="nonzero">
            <g id="编组" transform="translate(-0.000000, 0.000000)">
                <path d="M795.249893,643.590941 L519.160748,733.743814 L278.967041,839.75377 L211.769311,857.494109 C194.65544,873.772687 176.711089,890.260088 157.303052,906.954387 C136.017532,925.317347 116.192811,942.014533 100.956424,954.115687 C84.0542636,967.472666 59.0118523,992.514115 46.283267,1008.3712 C27.2919137,1032.16067 12.2672367,1057.41094 5.79757019,1076.8209 C-5.68096351,1111.88105 -0.0437024081,1147.35595 22.076148,1180.12193 C50.4568418,1221.85672 107.011331,1264.4268 172.953236,1293.43396 C206.553545,1308.25366 263.106109,1327.24213 305.676188,1337.88345 C376.418137,1355.83165 513.316588,1375.23968 588.649758,1378.16321 C603.881334,1378.78871 624.334449,1378.78871 625.166854,1378.16321 C626.838401,1377.11621 638.524796,1354.78946 652.09156,1327.03619 C698.419492,1232.49996 731.808091,1143.80885 749.962227,1068.05803 C760.813329,1022.14967 769.36834,961.003962 775.000789,888.593352 C776.464475,868.350023 777.088058,800.527748 775.836082,777.57068 C773.956674,740.008507 770.617429,709.542469 765.40455,679.700014 C764.569258,675.316653 764.357548,671.350939 764.777119,671.143078 C765.609524,670.517572 768.113476,669.683241 802.129507,659.872406 L795.246043,643.590941 L795.246043,643.590941 L795.249893,643.590941 L795.249893,643.590941 Z M732.227662,680.530494 C734.731614,680.530494 741.407217,744.594916 743.075877,785.082538 C743.495448,793.637548 743.283738,799.271922 742.868016,799.271922 C741.200318,799.271922 707.600009,779.449126 683.605563,764.424449 C662.735764,751.276293 623.087284,724.980943 616.827403,719.973038 C614.736285,718.513201 614.944146,718.30534 632.058978,712.460218 C661.063255,702.650345 729.932532,680.530494 732.227662,680.530494 L732.227662,680.530494 Z M591.574244,726.859388 C593.453652,726.859388 598.249847,729.569277 609.72838,736.666375 C652.716105,763.58627 711.150002,796.142463 736.191451,806.99549 C743.911169,810.333772 744.743574,809.079871 727.009009,821.185837 C689.028227,847.061616 641.654255,872.519748 583.639929,898.188629 C573.416258,902.77985 564.861248,906.325993 564.653387,906.325993 C564.237666,906.325993 565.485793,901.112152 567.15349,894.850347 C581.135976,842.884191 589.067405,790.297341 589.486975,748.142984 C589.694836,727.273185 589.694836,727.273185 591.574244,726.650565 C591.154673,726.859388 591.362534,726.859388 591.574244,726.859388 L591.574244,726.859388 Z M562.568043,737.918351 C563.81617,739.168403 562.983765,785.915905 561.31318,798.644491 C557.557251,829.113415 551.714054,857.493147 542.117815,889.424796 C539.821724,897.140664 537.731568,903.61418 537.318733,904.029902 C536.479592,905.072093 507.890075,877.109045 498.499772,866.257943 C482.221194,847.475413 469.494534,828.693845 460.103268,810.330885 C455.303224,800.93962 447.792329,782.577623 448.416874,781.950191 C451.755156,779.655062 561.732751,737.084984 562.568043,737.918351 Z M426.086276,791.549317 C426.294137,791.549317 426.501997,791.549317 426.713707,791.757178 C427.129429,792.174824 428.593115,795.515031 429.845091,799.269998 C436.520694,817.426059 451.543446,844.13713 464.485666,861.250038 C478.676013,880.032568 497.250683,900.064188 512.689157,913.211381 C517.699948,917.384956 522.288283,921.348746 522.912827,921.976177 C524.16769,923.229116 524.584374,923.018368 490.567382,935.958663 C451.130612,950.98334 408.139038,966.008017 358.888545,981.867024 C347.12369,985.660014 335.369566,989.486207 323.626313,993.345558 C321.74498,993.97299 322.372412,992.927912 327.797963,984.373864 C352.212943,946.183296 389.35747,871.26681 410.227269,818.260389 C413.775337,809.077947 417.322442,799.897429 417.949874,797.810161 C418.785166,794.886637 419.826395,793.844447 422.538208,792.382685 C423.999007,791.968888 425.461731,791.549317 426.086276,791.549317 L426.086276,791.549317 Z M384.353414,808.870086 C384.977959,809.289657 374.334718,831.616406 363.900299,852.067596 C343.65697,891.508215 321.537119,930.326214 291.904449,977.487513 C286.896545,985.624878 282.098425,993.139622 281.470993,993.973952 C280.428803,995.435714 280.009232,995.016143 276.670949,988.548401 C269.575776,974.565915 263.730654,956.617715 260.601195,940.131276 C257.469811,923.852698 258.097242,895.473929 261.646272,877.9453 C264.356161,865.007891 264.150225,865.216714 270.410106,862.08533 C297.121177,848.521453 383.518122,808.035756 384.353414,808.870086 L384.353414,808.870086 Z M744.33074,823.480004 L744.33074,832.243837 C744.33074,878.780592 739.322835,942.637153 732.015952,989.175832 C730.763975,997.313197 729.716973,1003.9888 729.511999,1004.20051 C729.511999,1004.20051 723.460941,1002.53281 716.365768,1000.44266 C685.064437,990.633745 651.048407,976.234575 620.370659,959.334339 C600.125405,948.273452 570.703483,930.115466 571.539738,929.280174 C571.744711,929.073275 580.511432,924.482054 590.735102,919.055541 C631.642295,897.770983 670.871204,874.81584 704.887234,852.06952 C717.617744,843.512585 736.813109,829.741809 740.991495,825.983956 L744.33074,823.480004 Z M226.793987,885.246409 C227.628317,885.246409 227.419494,886.916032 226.167518,894.428851 C225.332226,899.856327 224.290035,909.873099 223.875276,916.756562 C222.201804,947.225487 227.213558,969.764908 242.238235,1000.64859 C246.41181,1009.20553 249.75298,1016.3007 249.541269,1016.5076 C248.079508,1017.7615 109.933892,1058.24816 66.5246719,1070.14145 C53.5872635,1073.6876 42.3204399,1076.81898 41.4812983,1077.02492 C40.0233859,1077.44449 39.8136005,1077.23663 40.4391074,1073.68567 C45.2381892,1043.01177 68.6119405,1002.94372 101.165247,969.135552 C122.869376,946.599018 140.191107,933.452786 169.823777,916.546777 C191.109297,904.445623 223.872389,886.292449 226.376341,885.455232 C226.378266,885.246409 226.586127,885.246409 226.793987,885.246409 L226.793987,885.246409 Z M552.341486,943.469558 C552.549347,943.261698 557.557251,945.976398 563.608309,949.522541 C608.267581,975.400245 670.45452,999.399503 723.457092,1011.71044 L728.260023,1012.75552 L721.580571,1016.5076 C693.827309,1031.95185 602.632245,1069.9307 509.352799,1104.78299 C495.786034,1109.78897 482.431942,1114.79976 479.92414,1115.84195 C477.420188,1116.88414 475.124096,1117.51157 475.124096,1117.30371 C475.124096,1117.092 478.882912,1109.78897 483.679107,1100.81728 C509.764671,1051.98539 536.060983,992.511228 549.416038,951.191201 C551.08951,947.226449 552.129776,943.680306 552.341486,943.469558 L552.341486,943.469558 Z M519.160748,954.322585 C519.372458,954.535258 517.700911,958.913806 515.61268,963.921711 C497.458544,1007.95355 473.665221,1055.95399 443.199184,1109.79282 C435.479466,1123.56744 429.008837,1134.62833 428.797127,1134.62833 C428.592153,1134.62833 422.329385,1130.86952 414.817528,1126.27926 C370.573977,1099.14958 331.343144,1065.76098 305.67715,1033.41457 L301.919297,1028.82335 L320.907763,1023.60566 C388.939824,1005.03484 446.74244,985.001295 504.133184,960.377492 C512.273435,957.037285 518.952887,954.322585 519.160748,954.322585 L519.160748,954.322585 Z M725.340349,1026.31844 C725.340349,1026.31844 725.549172,1026.52726 725.340349,1026.31844 C725.54821,1031.11848 714.904968,1074.10813 706.13921,1105.19871 C698.836176,1131.28428 692.572446,1151.73739 681.097761,1187.83684 C676.089856,1203.70066 671.710345,1216.844 671.498635,1216.844 C671.290774,1216.844 670.038798,1216.63614 668.786822,1216.22138 C606.808706,1204.94879 551.298333,1189.2986 499.127204,1168.43169 C484.517286,1162.58657 463.650374,1153.1953 462.398398,1152.15311 C461.982676,1151.73162 474.504363,1145.89227 490.36337,1139.00496 C585.314363,1097.47707 683.812461,1050.31384 717.617744,1030.07436 C721.581533,1027.56945 724.712917,1026.31844 725.340349,1026.31844 L725.340349,1026.31844 Z M249.333409,1042.59701 C249.751055,1043.01273 223.247844,1081.2033 186.10043,1133.16465 C173.163022,1151.32071 158.138345,1172.60526 152.504933,1180.53477 C146.869596,1188.46523 138.314586,1200.98692 133.514542,1208.49974 L124.745897,1222.06458 L115.354631,1214.13508 C104.293744,1204.95071 85.0974168,1185.33577 76.541444,1174.48371 C58.5932438,1152.15696 46.4920901,1128.57535 41.692046,1107.08293 C39.3959543,1097.06423 39.3959543,1092.05344 41.4803359,1091.43082 C44.6097953,1090.59649 100.328992,1077.44834 152.503008,1065.34237 C181.510171,1058.66677 215.105668,1050.73726 227.209709,1047.81567 C239.314712,1044.88926 249.125548,1042.59701 249.333409,1042.59701 L249.333409,1042.59701 Z M276.043518,1052.82261 L282.71912,1060.33447 C312.773286,1093.93285 343.449109,1118.77029 380.594599,1140.46864 C387.274051,1144.22746 392.280993,1147.56382 391.861422,1147.77649 C390.404472,1148.81868 262.895362,1194.09865 203.838845,1214.5508 C170.660031,1226.23623 143.320566,1235.62653 143.11463,1235.62653 C142.906769,1235.62653 141.027361,1234.37648 138.937206,1232.91472 L135.183202,1230.20098 L141.23426,1221.43811 C160.849195,1193.05645 185.47781,1161.96395 239.108776,1097.27209 L276.043518,1052.82261 Z M442.575601,1171.9788 C442.780575,1171.7719 451.963017,1175.10825 463.230803,1179.28664 C490.36337,1189.51031 511.853864,1195.97805 540.655091,1203.28301 C576.131921,1212.25759 627.466795,1221.02239 657.727859,1223.52538 C662.31908,1223.9411 664.823033,1224.36067 663.98774,1224.98714 C662.524054,1225.82243 631.851118,1236.04803 609.312659,1243.1432 C573.416258,1254.41003 463.859197,1286.75547 374.543541,1312.42531 C358.057102,1317.2244 343.865793,1321.19011 343.031463,1321.39701 C340.947081,1321.81658 334.057844,1319.93525 334.057844,1319.10092 C334.057844,1318.68616 339.065749,1312.21745 345.118732,1305.12132 C375.167123,1269.22684 405.011503,1229.16072 429.845091,1191.17993 C436.729517,1180.74263 442.575601,1172.18762 442.575601,1171.9788 Z M405.846067,1173.02484 C406.051769,1173.2327 391.236878,1197.02121 365.363023,1237.92263 C354.300211,1255.24339 341.987347,1274.85929 337.603987,1281.7466 C333.430412,1288.42413 327.170531,1298.86047 323.624388,1304.70175 L317.571405,1315.34595 L314.441946,1314.51066 C306.927202,1312.42339 254.131528,1293.84872 240.149042,1288.21531 C222.827311,1281.328 204.881035,1272.98277 191.524056,1265.8876 C174.831682,1256.91302 153.96477,1243.55604 155.632467,1243.14128 C156.049151,1242.93342 184.639631,1235.20889 219.07042,1225.82051 C310.47527,1200.98403 361.183675,1186.58679 394.3673,1176.15333 C400.420282,1174.27489 405.636048,1172.81313 405.846067,1173.02484 Z M665.655438,1233.95691 L665.863299,1233.95691 C666.698591,1236.0461 632.894271,1329.95298 620.576596,1359.58469 C617.867669,1366.26222 616.827403,1367.93473 615.363717,1367.72205 C611.815649,1367.51708 562.776866,1360.62977 532.931524,1356.24641 C480.972105,1348.3169 393.74083,1333.08052 371.830765,1328.07454 L366.82286,1327.03235 L397.91248,1319.93236 C464.693527,1304.90768 496.83015,1296.77032 529.383456,1286.75355 C570.495622,1274.23282 611.191104,1258.58071 652.299421,1239.38342 C658.768125,1236.46086 664.194639,1234.16573 665.655438,1233.95691 Z" id="形状" fill="url(#linearGradient-1)"></path>
                <path d="M510.605737,0.0106884908 C506.014516,-0.611931505 431.929473,26.0991399 384.142667,45.5042902 C319.657712,71.8015647 269.576738,96.8449384 238.690167,118.543293 C227.214521,126.685469 212.812464,141.082715 210.520221,146.716126 C209.685891,148.803395 209.26632,151.307347 209.26632,153.8113 L237.231293,180.314511 L303.799667,201.600031 L462.191499,229.981687 L643.326764,261.076119 L645.206172,245.424972 C644.581628,245.424972 644.162057,245.217112 643.541361,245.217112 L619.745152,241.459258 L614.948958,232.904248 C590.32323,189.496953 563.194512,135.656201 547.335505,99.3450415 C535.024566,71.1722085 523.33721,38.6208268 516.866581,15.2470755 C513.318513,1.05672858 512.902791,0.222398536 510.610549,0.0145377643 L510.610549,0.00972617239 L510.605737,0.00972617239 L510.605737,0.0106884908 Z M507.262643,10.6568168 L507.47724,10.6568168 C507.682214,10.8627529 508.517506,16.7097994 509.353761,23.5923005 C512.89798,52.812136 519.372458,80.9801575 529.596128,111.449082 C537.315846,134.405187 537.315846,133.154173 528.344152,130.439473 C507.058632,124.598201 411.690955,108.111762 342.616704,98.5126361 C331.555816,97.0508745 322.164551,95.5910375 322.164551,95.3831767 C321.330221,94.5488467 372.038626,68.0437114 394.368262,57.6121801 C422.957779,44.4620994 501.422333,11.6990076 507.262643,10.6568168 L507.262643,10.6568168 Z M306.092872,104.146048 L314.235048,106.855937 C358.472824,121.8835 469.698545,143.169983 531.055003,148.177888 C537.939429,148.804357 543.785513,149.431789 543.990487,149.431789 C544.198348,149.63965 538.359,152.770071 530.844255,156.316215 C501.214472,171.133031 468.658279,189.289092 446.11982,203.271578 C439.444217,207.443228 433.38931,210.784398 432.556905,210.784398 C431.721612,210.784398 427.341139,209.949105 422.749918,209.322636 L414.402768,208.068735 L393.536819,187.616582 C356.808013,151.933817 328.008711,124.388415 316.947823,113.952072 L306.092872,104.146048 L306.092872,104.146048 Z M297.748609,110.61379 L327.172456,147.343558 C343.239324,167.585925 359.516939,187.409684 363.067894,191.790157 C366.612113,196.175442 369.535636,199.724472 369.327775,199.932333 C368.492483,200.55784 326.758659,192.417589 304.634959,187.411609 C281.88864,182.192956 272.498337,179.689004 258.516813,175.30853 L247.038279,171.550677 L247.038279,168.627154 C247.24614,154.644668 264.98648,133.777756 295.035833,112.49416 L297.748609,110.61379 Z M547.750265,160.698613 C548.586519,160.698613 549.626786,162.576096 552.130738,168.21047 C559.225911,183.860654 581.350573,226.016935 586.771313,234.1543 C588.445747,236.869962 591.362534,237.077823 561.941574,232.277779 C491.199625,220.79732 468.450418,217.045241 468.450418,216.627595 C468.450418,216.419734 470.537687,214.957972 473.250462,213.496211 C495.163414,201.395057 517.282302,185.950809 536.900125,169.464371 C541.700169,165.498657 546.082567,161.742728 546.914972,161.115296 C547.122833,160.698613 547.542404,160.490752 547.750265,160.698613 Z" id="形状" fill="url(#linearGradient-2)"></path>
                <path d="M211.976209,143.794528 C211.976209,143.794528 207.387875,151.101411 211.769311,161.953476 C214.484973,168.629078 222.413514,176.766443 231.385208,185.115517 C231.385208,185.115517 324.248933,275.683149 335.518643,288.623445 C386.852555,347.887823 409.183153,406.319795 411.270422,486.87258 C412.522398,538.626063 402.711562,584.118702 378.297545,636.9163 C334.891212,731.659432 243.277539,836.210513 101.999577,952.239166 L122.662477,945.351853 C136.017532,935.333156 154.173593,924.693764 196.743671,901.320013 C295.031984,847.476375 405.635086,798.018984 541.280598,747.100793 C736.603323,673.642219 1057.77131,587.662921 1240.57427,559.70276 L1259.56755,556.779237 L1256.64403,552.188016 C1239.95262,526.310312 1228.4712,510.243444 1214.69657,493.131499 C1174.63237,443.464322 1126.01219,403.190336 1066.53418,369.799812 C984.730383,324.100274 878.924439,288.415584 744.95336,261.912373 C719.703088,256.901582 664.192714,247.303418 619.117721,240.417068 C523.539296,225.604101 461.769042,215.376581 393.739868,203.690186 C369.325851,199.514687 332.802981,193.255768 308.595862,188.040003 C296.075137,185.32434 272.078766,179.690928 253.297198,173.222224 C238.272521,167.37614 216.56743,161.532943 211.976209,143.794528 L211.976209,143.794528 Z M265.819847,195.967581 C266.025783,195.761645 269.364066,197.009772 273.749351,198.471534 C281.678854,201.181422 291.903487,204.312806 304.010415,207.653976 C313.169483,210.173267 322.351677,212.607716 331.555816,214.95701 C344.076541,218.085507 354.509034,221.008068 354.716895,221.008068 C356.180581,222.46983 377.258241,289.869647 384.353414,315.747351 C387.062341,325.558187 389.153459,333.903412 388.944635,333.903412 C388.730038,334.115122 386.437796,330.565129 383.725983,325.766048 C359.309078,282.776398 320.702789,239.162204 276.043518,204.102059 C270.203208,199.932333 265.819847,196.175442 265.819847,195.967581 L265.819847,195.967581 Z M368.49152,224.348275 C369.535636,224.348275 374.126857,224.974744 379.758344,226.225758 C415.235174,234.155262 478.884836,246.259303 519.576469,253.146615 C526.463782,254.188806 531.891258,255.443669 531.891258,255.858428 C531.891258,256.277999 529.384418,257.735912 526.253034,259.407459 C519.369571,262.953602 491.612459,279.438116 482.432904,285.699922 C459.267014,301.142245 438.401064,317.836544 423.374463,332.861221 C417.323405,338.914204 412.10379,343.922109 412.10379,343.922109 C412.10379,343.922109 410.855663,340.375965 409.807698,335.99068 C402.29969,306.983517 386.645657,263.993868 372.45531,233.736653 C370.159218,228.938534 368.27981,224.555174 368.27981,224.139452 C368.27981,224.556136 368.27981,224.348275 368.49152,224.348275 L368.49152,224.348275 Z M549.210102,258.780989 C550.462078,259.196711 552.549347,266.292847 556.721959,281.943031 C564.444564,312.204095 567.992632,346.010339 566.740656,377.521455 C566.321085,386.286251 565.905363,394.423615 565.485793,395.469655 L564.861248,397.554037 L554.010146,394.007894 C531.68051,386.91272 495.371275,376.267554 464.278768,367.504683 C446.537466,362.704639 432.142145,358.322241 432.142145,357.905557 C432.142145,356.651656 458.019849,330.775877 469.078812,320.96889 C490.15166,302.393259 547.330694,258.153558 549.210102,258.780989 L549.210102,258.780989 Z M563.609272,260.865371 C564.236703,260.242751 650.005254,275.055718 689.029189,282.5695 C718.038277,288.202912 760.190709,296.96867 762.693699,298.013748 C763.945676,298.429469 759.562315,300.933422 745.579829,307.193303 C690.489026,332.028816 649.584721,354.354602 608.895975,381.486207 C598.252734,388.58138 589.278152,394.423615 589.070292,394.423615 C588.862431,394.423615 588.653608,388.373519 588.653608,381.068561 C588.653608,341.420081 580.723142,301.35203 566.112262,267.545785 C564.652425,264.20654 563.400449,261.077081 563.609272,260.865371 L563.609272,260.865371 Z M785.439057,304.691275 C786.066488,305.316782 783.351788,322.221829 780.847836,332.236676 C773.335978,363.331108 753.094573,409.453104 728.263872,452.85655 C723.877625,460.578193 719.913836,466.839036 719.493302,467.046897 C719.080468,467.254757 713.445131,464.123373 706.974502,460.367445 C682.768346,446.177098 655.222944,432.822043 625.170703,420.299394 C616.826441,416.753251 609.52052,413.829728 609.311696,413.415931 C607.84801,412.16203 675.045741,367.712544 710.52257,346.427023 C738.695403,329.31604 784.603764,303.85502 785.439057,304.691275 L785.439057,304.691275 Z M801.298064,307.194265 C803.177472,307.194265 841.158254,317.629646 860.980088,323.472843 C910.02272,338.081798 966.365499,358.739887 1003.0943,375.434186 L1018.32588,382.323424 L1007.68649,384.825452 C917.95511,405.48354 841.158254,429.276862 767.074173,459.326216 C761.022152,461.830169 755.595639,463.917437 755.182804,463.917437 C754.763234,463.917437 756.850502,459.118356 759.563278,453.273234 C781.892913,405.903111 796.292083,356.444758 799.836302,314.288476 C800.048974,310.322762 800.670632,307.194265 801.298064,307.194265 L801.298064,307.194265 Z M423.166602,394.007894 C423.791147,393.380462 452.799272,400.268737 468.450418,404.647286 C492.239891,411.3277 542.739473,428.228898 542.739473,429.482799 C542.739473,429.690659 537.107023,434.490703 530.431421,440.335825 C503.09388,463.082145 476.797568,487.077554 445.284528,517.546479 C435.893263,526.522985 427.965684,533.826019 427.549962,533.826019 C427.130391,533.826019 426.925417,532.571156 427.130391,530.902495 C431.929473,495.84235 430.889207,450.768319 424.210717,405.066856 C423.582323,399.221735 422.957779,394.215754 423.166602,394.007894 L423.166602,394.007894 Z M1032.73082,394.635325 C1033.14366,395.050084 1019.37288,416.753251 1010.60905,429.06419 C998.090249,447.010466 979.720553,470.80475 938.192666,522.974917 C916.285488,550.518393 891.656873,581.61475 883.521434,592.048206 C875.170435,602.481662 868.286971,611.244533 868.075261,611.244533 C867.8674,611.244533 865.158474,607.490529 862.234951,602.90027 C838.8612,567.840124 810.896227,537.163339 777.715489,509.617937 C771.455608,504.399285 764.572145,498.764911 762.276053,497.095288 C759.979961,495.426628 758.100554,493.757006 758.100554,493.549145 C758.100554,492.9246 793.573534,477.687251 820.49824,466.838074 C867.661464,447.637897 931.928935,424.683717 980.139162,409.865938 C1005.3904,401.937397 1032.31125,394.215754 1032.73082,394.635325 L1032.73082,394.635325 Z M1048.79769,398.806013 C1049.6301,398.599115 1054.64089,401.103067 1060.69291,404.647286 C1111.4042,433.654449 1161.06753,471.010686 1200.30317,509.409114 C1211.36214,520.262141 1238.69968,548.642835 1238.28011,548.850696 C1238.28011,548.850696 1228.68098,549.685026 1217.41416,550.518393 C1129.55834,557.198808 1017.08064,575.768666 908.980529,601.853268 C901.677495,603.520966 895.209753,604.982727 894.790182,604.982727 C894.377347,604.982727 902.512787,596.845363 912.740307,587.038376 C976.178259,525.894591 1005.18735,487.288302 1039.40835,418.420949 C1044.20647,408.19824 1048.38197,399.433445 1048.79769,398.806013 C1048.58983,398.806013 1048.58983,398.806013 1048.79769,398.806013 L1048.79769,398.806013 Z M584.0595,446.388808 C586.983023,447.011428 614.111741,459.745787 634.561969,469.968495 C653.343537,479.355911 681.517332,494.384437 682.977169,495.634489 C683.18503,495.84235 673.166333,501.06004 660.859243,507.113023 C621.623598,526.728921 588.027138,545.299741 552.96603,566.586224 C542.950221,572.639206 534.603071,577.649998 534.39521,577.649998 C533.559918,577.649998 533.767779,576.810856 539.403115,566.586224 C558.185645,532.365219 573.208398,491.462839 581.767257,451.602649 C582.5987,448.47319 583.434955,446.388808 584.0595,446.388808 L584.0595,446.388808 Z M556.92982,451.394788 C557.557251,452.02222 550.462078,477.688213 546.081605,491.6707 C537.522745,518.17391 523.124537,551.353686 509.144938,576.396097 C505.801844,582.236407 500.794901,590.793343 498.082126,595.592424 L492.86636,603.939574 L481.179966,592.673713 C467.61705,579.525557 456.554238,571.38723 442.366778,564.081309 C436.728555,561.162597 432.348082,558.655758 432.348082,558.240999 C432.348082,556.571376 468.032772,524.225931 495.370313,500.853142 C514.985248,483.949057 556.305275,450.769281 556.92982,451.394788 L556.92982,451.394788 Z M722.837359,519.635672 L733.063916,526.311274 C756.430931,541.547661 783.976333,561.788104 805.057842,579.525557 C816.94921,589.331581 839.90339,609.994481 844.498461,615.002386 L846.998564,617.718049 L830.099291,622.516168 C734.520866,649.016492 660.647533,672.598104 574.460374,704.319967 C564.861248,707.86611 556.721959,710.787709 556.094527,710.787709 C554.8464,710.787709 553.799398,711.8299 575.296629,692.004216 C630.390318,641.298698 679.219316,585.367791 715.531438,530.901533 L722.837359,519.635672 L722.837359,519.635672 Z M679.22124,530.486774 C679.636962,530.902495 651.048407,571.177445 633.934537,593.924727 C613.484309,621.054406 577.172187,666.546084 552.130738,696.176829 C541.699207,708.491617 532.727512,718.71625 532.307942,718.926036 C531.68051,719.133896 531.472649,716.004437 531.472649,711.204393 C531.472649,685.951234 525.004907,659.031339 513.734234,636.078121 C508.93419,626.478995 508.098898,624.182904 509.1459,623.140713 C513.10969,619.591683 573.835829,584.950145 612.232333,564.292057 C638.109074,550.519356 678.589959,530.069128 679.22124,530.486774 L679.22124,530.486774 Z M415.443035,595.178627 C416.070466,595.178627 420.87051,597.680655 426.297024,600.604178 C439.652078,607.907213 451.547296,616.045539 462.189575,624.81226 C462.605296,625.227981 457.18167,629.612304 450.086496,634.826145 C430.260813,649.016492 400.211459,671.764736 382.684754,685.747222 C364.316021,700.355215 363.694363,700.771899 365.778745,697.64244 C379.55337,676.56478 386.436834,664.669563 393.743717,649.437025 C400.211459,635.87411 406.679201,619.804355 411.270422,605.821869 C412.939082,599.769848 415.027313,595.178627 415.443035,595.178627 Z M485.772149,650.26943 C486.812415,650.063494 488.068241,651.939053 493.699728,660.288127 C505.594946,678.022693 514.777388,701.816015 517.076366,721.014266 L517.489201,725.189766 L488.903533,736.250653 C437.77267,756.07345 390.613296,775.691273 358.680685,790.296379 C349.709953,794.471878 334.057844,801.982773 323.834173,806.994527 C313.607616,812.208368 305.260466,816.174082 305.260466,815.966222 C305.260466,815.758361 311.728208,810.958317 319.657712,805.113195 C382.058285,759.831303 436.104973,710.162202 476.588745,660.49695 C480.972105,655.278298 484.938781,650.478253 485.352578,650.270393 L485.772149,650.26943 Z M453.426704,658.200859 C454.261996,659.035189 430.472523,685.954121 414.194908,702.439597 C373.918996,743.552725 334.059769,775.691273 284.600453,806.994527 C278.340572,810.958317 272.70716,814.50446 272.079728,814.924031 C270.617967,815.758361 272.49545,813.67013 294.199579,790.088518 C307.974204,775.271702 318.406698,762.750977 330.301915,747.310579 C338.231419,737.086908 339.69318,735.625147 351.172676,727.482971 C381.849462,705.362158 452.591411,657.364604 453.426704,658.200859 Z" id="形状" fill="url(#radialGradient-3)"></path>
            </g>
        </g>
    </g>
</svg>