<svg width="245" height="245" viewBox="0 0 245 245" fill="none" xmlns="http://www.w3.org/2000/svg">
<path d="M149.194 187.214H95.8058C96.1217 188.162 96.1217 189.11 96.1217 190.057C96.1217 190.373 96.1217 190.689 96.1217 191.005H148.878C148.878 190.689 148.878 190.373 148.878 190.057C148.878 189.11 148.878 188.162 149.194 187.214ZM185.84 121.19L168.78 173.314C170.044 173.63 171.308 173.946 172.255 174.578L189.314 122.769C188.051 122.453 187.103 121.821 185.84 121.19ZM180.785 95.601L136.874 63.6943C136.242 64.6421 135.294 65.9057 134.662 66.8534L178.574 98.7601C179.205 97.4965 179.837 96.5487 180.785 95.601ZM108.126 63.6943L64.531 95.2851C65.4787 96.2328 66.1105 97.1806 66.7423 98.4442L110.338 66.8534C109.39 65.9057 108.758 64.958 108.126 63.6943ZM59.1605 121.505C57.8969 122.137 56.9492 122.453 55.6855 122.769L72.4287 174.578C73.6923 173.946 74.9559 173.63 76.2195 173.63L59.1605 121.505Z" fill="#0041CE"/>
<path d="M122.657 66.5364C128.938 66.5364 134.03 61.4446 134.03 55.1637C134.03 48.8827 128.938 43.791 122.657 43.791C116.376 43.791 111.284 48.8827 111.284 55.1637C111.284 61.4446 116.376 66.5364 122.657 66.5364Z" fill="#0041CE"/>
<path d="M51.5787 117.714C57.8597 117.714 62.9514 112.622 62.9514 106.341C62.9514 100.06 57.8597 94.9688 51.5787 94.9688C45.2978 94.9688 40.2061 100.06 40.2061 106.341C40.2061 112.622 45.2978 117.714 51.5787 117.714Z" fill="#0041CE"/>
<path d="M193.737 117.714C200.018 117.714 205.11 112.622 205.11 106.341C205.11 100.06 200.018 94.9688 193.737 94.9688C187.456 94.9688 182.364 100.06 182.364 106.341C182.364 112.622 187.456 117.714 193.737 117.714Z" fill="#0041CE"/>
<path d="M165.623 201.429C171.904 201.429 176.995 196.337 176.995 190.056C176.995 183.775 171.904 178.684 165.623 178.684C159.342 178.684 154.25 183.775 154.25 190.056C154.25 196.337 159.342 201.429 165.623 201.429Z" fill="#0041CE"/>
<path d="M79.3785 201.429C85.6595 201.429 90.7512 196.337 90.7512 190.056C90.7512 183.775 85.6595 178.684 79.3785 178.684C73.0976 178.684 68.0059 183.775 68.0059 190.056C68.0059 196.337 73.0976 201.429 79.3785 201.429Z" fill="#0041CE"/>
<path d="M164.988 191.004L164.672 191.32V191.636L163.725 191.004H164.988Z" fill="#0041CE"/>
<path d="M81.2734 191.004L80.3257 191.636L80.0098 191.004H81.2734Z" fill="#0041CE"/>
<path d="M119.182 71.5913L108.442 104.762L107.178 108.552L97.7007 137.616L96.437 141.407L85.6962 174.577C84.4325 173.945 83.1689 173.629 81.9053 173.629L92.962 139.196L94.2257 135.405L103.071 108.552L104.335 104.762L115.391 70.6436C116.655 70.9595 117.919 71.2754 119.182 71.5913Z" fill="#0041CE"/>
<path d="M151.721 138.88L162.778 173.314C161.514 173.63 160.25 173.946 158.987 174.262L148.246 141.091L146.982 137.301L137.505 108.237L136.241 104.446L125.816 71.5918C127.08 71.2758 128.344 70.9599 129.291 70.3281L140.348 104.446L141.612 108.237L150.457 135.089L151.721 138.88Z" fill="#0041CE"/>
<path d="M164.99 191.004L164.674 191.32V191.004H164.99Z" fill="#0041CE"/>
<path d="M125.817 158.15L148.562 141.407L147.299 137.616L122.342 155.938L97.7011 137.616L94.542 135.088L66.4262 114.238C65.7944 115.502 65.1626 116.45 64.2148 117.398L93.2784 138.879L96.4374 141.407L119.183 158.15L91.3829 178.684C92.3306 179.631 92.9624 180.579 93.5943 181.843L122.342 160.677L150.774 181.843C151.405 180.579 152.037 179.631 152.985 178.684L125.817 158.15ZM163.726 191.004L164.673 191.636L164.989 191.32L165.305 191.004H163.726ZM148.562 141.407L151.721 138.879L180.785 117.398C179.837 116.45 179.205 115.502 178.573 114.238L150.458 135.088L147.299 137.616L122.342 155.938L97.7011 137.616L94.542 135.088L66.4262 114.238C65.7944 115.502 65.1626 116.45 64.2148 117.398L93.2784 138.879L96.4374 141.407L119.183 158.15L91.3829 178.684C92.3306 179.631 92.9624 180.579 93.5943 181.843L122.342 160.677L150.774 181.843C151.405 180.579 152.037 179.631 152.985 178.684L125.185 158.15L148.562 141.407ZM176.994 108.552C176.994 107.92 176.994 107.289 176.994 106.657C176.994 106.025 176.994 105.393 176.994 105.077H68.3216C68.3216 105.709 68.3216 106.341 68.3216 106.657C68.3216 107.289 68.3216 107.92 68.3216 108.552H176.994ZM80.0102 191.004L80.642 191.636L81.5898 191.004H80.0102Z" fill="#0041CE"/>
</svg>
