<?xml version="1.0" encoding="UTF-8"?>
<svg width="16px" height="16px" viewBox="0 0 16 16" version="1.1" xmlns="http://www.w3.org/2000/svg" xmlns:xlink="http://www.w3.org/1999/xlink">
    <title>✧ Icon/IndexManagement</title>
    <defs>
        <linearGradient x1="165.660793%" y1="153.772815%" x2="23.1540938%" y2="32.6768886%" id="linearGradient-1">
            <stop stop-color="#0019F4" offset="0%"></stop>
            <stop stop-color="#8A62FF" offset="100%"></stop>
        </linearGradient>
    </defs>
    <g id="Symbols" stroke="none" stroke-width="1" fill="none" fill-rule="evenodd">
        <g id="✧-Icon/IndexManagement">
            <rect id="矩形" fill="#FFFFFF" opacity="0" x="0" y="0" width="16" height="16"></rect>
            <path d="M12.8,1 C13.4627417,1 14,1.5372583 14,2.2 L14,13.8 C14,14.4627417 13.4627417,15 12.8,15 L3.2,15 C2.5372583,15 2,14.4627417 2,13.8 L2,2.2 C2,1.5372583 2.5372583,1 3.2,1 L12.8,1 Z" id="路径" fill="url(#linearGradient-1)" transform="translate(8.000000, 8.000000) rotate(-270.000000) translate(-8.000000, -8.000000) "></path>
            <path d="M11.9757359,5.67573593 C12.2100505,5.44142136 12.5899495,5.44142136 12.8242641,5.67573593 C13.0325437,5.88401555 13.0556859,6.20732483 12.8936906,6.4411666 L12.8242641,6.52426407 L9.42426407,9.92426407 C9.18087287,10.1676553 8.79036707,10.153305 8.56358267,9.91199209 L8.50076982,9.83282012 L6.906,7.442 L4.02426407,10.3242641 C3.81598445,10.5325437 3.49267517,10.5556859 3.2588334,10.3936906 L3.17573593,10.3242641 C2.96745631,10.1159844 2.94431413,9.79267517 3.10630939,9.5588334 L3.17573593,9.47573593 L6.57573593,6.07573593 C6.81912713,5.83234473 7.20963293,5.846695 7.43641733,6.08800791 L7.49923018,6.16717988 L9.093,8.557 L11.9757359,5.67573593 Z" id="路径" fill="#FFFFFF"></path>
        </g>
    </g>
</svg>