<?xml version="1.0" encoding="UTF-8"?>
<svg width="16px" height="16px" viewBox="0 0 16 16" version="1.1" xmlns="http://www.w3.org/2000/svg" xmlns:xlink="http://www.w3.org/1999/xlink">
    <title>✧ Icon/LinkAnalysis</title>
    <defs>
        <linearGradient x1="-57.1290409%" y1="255.547707%" x2="74.0359179%" y2="17.8340218%" id="linearGradient-1">
            <stop stop-color="#0019F4" offset="0%"></stop>
            <stop stop-color="#8A62FF" offset="100%"></stop>
        </linearGradient>
    </defs>
    <g id="Symbols" stroke="none" stroke-width="1" fill="none" fill-rule="evenodd">
        <g id="✧-Icon/LinkAnalysis">
            <rect id="矩形" fill="#FFFFFF" opacity="0" x="0" y="0" width="16" height="16"></rect>
            <path d="M13.6,1.2 C14.2627417,1.2 14.8,1.7372583 14.8,2.4 L14.8,13.6 C14.8,14.2627417 14.2627417,14.8 13.6,14.8 L2.4,14.8 C1.7372583,14.8 1.2,14.2627417 1.2,13.6 L1.2,2.4 C1.2,1.7372583 1.7372583,1.2 2.4,1.2 L13.6,1.2 Z" id="矩形" fill="url(#linearGradient-1)"></path>
            <g id="编组" transform="translate(3.500917, 3.519985)" fill="#FFFFFF" fill-rule="nonzero">
                <path d="M5.36802007,0.604631922 C6.18771545,-0.215119923 7.52534132,-0.197189886 8.3558148,0.633283599 C9.14476461,1.42223341 9.20039396,2.66888825 8.51143239,3.48378656 L8.3964596,3.60873704 L7.62957613,4.42086828 C7.40206939,4.6617984 7.02232628,4.67268021 6.78139616,4.44517347 C6.56723605,4.24294526 6.53484251,3.92043152 6.69007316,3.68204552 L6.75709097,3.5969935 L7.53596757,2.77252097 C7.88188895,2.42662341 7.8741418,1.84866687 7.50728666,1.48181174 C7.17100279,1.14552786 6.65733509,1.11099445 6.31411629,1.36740352 L6.22499851,1.4445386 L4.10011982,3.65654032 C3.87055868,3.89551379 3.49073632,3.903144 3.25176285,3.67358285 C3.03934198,3.4695285 3.00971086,3.14674925 3.16697677,2.909701 L3.23472031,2.82522588 L5.36802007,0.604631922 Z" id="路径"></path>
                <path d="M2.09496063,4.64247685 C2.30324025,4.85075647 2.32638243,5.17406576 2.16438717,5.40790753 L2.09496063,5.49100499 L1.72638214,5.85302294 L1.46641553,6.1050162 C1.11157445,6.45983283 1.10837654,7.11869223 1.46643014,7.47674584 C1.8050553,7.81537099 2.32354841,7.8480137 2.68988924,7.56325119 L2.77811247,7.48544134 L4.85148016,5.60310195 C5.0968243,5.38036242 5.47628108,5.39868708 5.6990206,5.64403122 C5.89701129,5.8621149 5.90453151,6.18616412 5.73144531,6.41191975 L5.65809133,6.49157166 L3.60566751,8.35395488 C2.78592287,9.17364304 1.44835898,9.15573094 0.617902006,8.32527397 C-0.21063934,7.49673263 -0.203753573,6.07807243 0.62536995,5.2491347 L1.24643249,4.64247685 C1.48074706,4.40816228 1.86064605,4.40816228 2.09496063,4.64247685 Z" id="路径"></path>
                <path d="M3.30412926,2.77242799 C3.53845891,2.53812849 3.9183579,2.53815292 4.1526574,2.77248257 C4.36092363,2.98077559 4.38404501,3.30408636 4.22203471,3.53791771 L4.15260282,3.62101071 C3.97314001,3.80045044 3.88428361,4.04597337 3.90162388,4.30240069 C3.91384404,4.48325909 3.97829535,4.65749325 4.08935268,4.80571818 L4.1812964,4.91170726 C4.41561098,5.14602184 4.41561098,5.52592082 4.1812964,5.7602354 C3.94698183,5.99454997 3.56708284,5.99454997 3.33276826,5.7602354 C2.95867338,5.38614051 2.73907671,4.89719696 2.70435597,4.38333008 C2.66397974,3.78624772 2.87594512,3.20055705 3.30412926,2.77242799 Z" id="路径"></path>
                <path d="M4.80169479,3.48382061 C5.03600937,3.24950603 5.41590835,3.24950603 5.65022293,3.48382061 C6.48069641,4.31429409 6.49862645,5.65191996 5.67887461,6.47161534 C5.44455196,6.70592184 5.06465297,6.70590875 4.83034647,6.47158611 C4.62207402,6.26329931 4.59894298,5.93998923 4.76094629,5.70615305 L4.8303757,5.62305797 C5.17629707,5.27716042 5.16854993,4.69920388 4.80169479,4.33234874 C4.56738022,4.09803417 4.56738022,3.71813518 4.80169479,3.48382061 Z" id="路径"></path>
            </g>
        </g>
    </g>
</svg>