<?xml version="1.0" encoding="UTF-8"?>
<svg width="16px" height="16px" viewBox="0 0 16 16" version="1.1" xmlns="http://www.w3.org/2000/svg" xmlns:xlink="http://www.w3.org/1999/xlink">
    <title>✧ Icon/LogAnalysis</title>
    <defs>
        <linearGradient x1="-36.3752776%" y1="243.094227%" x2="69.2231602%" y2="20.1531516%" id="linearGradient-1">
            <stop stop-color="#0019F4" offset="0%"></stop>
            <stop stop-color="#8A62FF" offset="100%"></stop>
        </linearGradient>
    </defs>
    <g id="Symbols" stroke="none" stroke-width="1" fill="none" fill-rule="evenodd">
        <g id="✧-Icon/LogAnalysis">
            <rect id="矩形" fill="#FFFFFF" opacity="0" x="0" y="0" width="16" height="16"></rect>
            <path d="M12.2,1 C13.1941125,1 14,1.80588747 14,2.80000005 L14,2.80000005 L14,13.2 C14,14.1941125 13.1941125,15 12.2,15 L12.2,15 L3.80000005,15 C2.80588747,15 2,14.1941125 2,13.2 L2,13.2 L2,5.7 L5.6,5.7 L5.71662113,5.69327227 C6.21395981,5.63550716 6.6,5.21283584 6.6,4.7 L6.6,4.7 L6.6,1 Z M10.4,10.2 L5.6,10.2 C5.26862915,10.2 5,10.4686292 5,10.8 C5,11.1313708 5.26862915,11.4 5.6,11.4 L5.6,11.4 L10.4,11.4 C10.7313708,11.4 11,11.1313708 11,10.8 C11,10.4686292 10.7313708,10.2 10.4,10.2 L10.4,10.2 Z M10.4,6.2 L7.6,6.2 C7.26862915,6.2 7,6.46862915 7,6.8 C7,7.13137085 7.26862915,7.4 7.6,7.4 L7.6,7.4 L10.4,7.4 C10.7313708,7.4 11,7.13137085 11,6.8 C11,6.46862915 10.7313708,6.2 10.4,6.2 L10.4,6.2 Z M5.40017313,1.16816528 L5.399,4.5 L2.1226415,4.499875 C2.20227408,4.30837468 2.31913207,4.1323398 2.46862915,3.98284271 L2.46862915,3.98284271 L4.98284271,1.46862915 C5.1060049,1.34546696 5.24717877,1.24445751 5.40017313,1.16816528 Z" id="形状结合" fill="url(#linearGradient-1)"></path>
        </g>
    </g>
</svg>