<?xml version="1.0" encoding="UTF-8"?>
<svg width="16px" height="16px" viewBox="0 0 16 16" version="1.1" xmlns="http://www.w3.org/2000/svg" xmlns:xlink="http://www.w3.org/1999/xlink">
    <title>pingmesh-Hover</title>
    <defs>
        <linearGradient x1="-53.7138826%" y1="244.517625%" x2="78.2209507%" y2="17.3822031%" id="linearGradient-1">
            <stop stop-color="#0019F4" offset="0%"></stop>
            <stop stop-color="#8A62FF" offset="100%"></stop>
        </linearGradient>
    </defs>
    <g id="页面-1" stroke="none" stroke-width="1" fill="none" fill-rule="evenodd">
        <g id="pingmesh-Hover">
            <rect id="矩形" fill="#FFFFFF" opacity="0" x="0" y="0" width="16" height="16"></rect>
            <path d="M13.1882353,1.7 C13.802246,1.7 14.3,2.19775401 14.3,2.81176471 L14.3,13.1882353 C14.3,13.802246 13.802246,14.3 13.1882353,14.3 L2.81176471,14.3 C2.19775401,14.3 1.7,13.802246 1.7,13.1882353 L1.7,2.81176471 C1.7,2.19775401 2.19775401,1.7 2.81176471,1.7 L13.1882353,1.7 Z M6.54272873,4.54210408 C6.31994337,4.05555606 5.57506178,4.08799259 5.42188925,4.63941368 L5.42188925,4.63941368 L4.543,7.801 L3,7.8 L2.90267688,7.80785299 C2.61758961,7.85435325 2.4,8.10176624 2.4,8.4 C2.4,8.73137085 2.66862915,9 3,9 L3,9 L5,9 L5.09926503,8.99177037 C5.32606965,8.95382001 5.5149912,8.78781669 5.57811075,8.56058632 L5.57811075,8.56058632 L6,7.044 L6.42188925,8.56058632 L6.45638633,8.65402734 C6.55365504,8.86240048 6.7641659,9 7,9 L7,9 L8.629,9.001 L9.46334369,10.6683282 L9.5167016,10.7563227 C9.77252136,11.108301 10.3313357,11.0789695 10.5366563,10.6683282 L10.5366563,10.6683282 L11.37,9.001 L13,9 L13.0973231,8.99214701 C13.3824104,8.94564675 13.6,8.69823376 13.6,8.4 C13.6,8.06862915 13.3313708,7.8 13,7.8 L13,7.8 L11,7.8 L10.9040482,7.80770524 C10.7155431,7.83821406 10.5504596,7.95744006 10.4633437,8.13167184 L10.4633437,8.13167184 L10,9.059 L9.53665631,8.13167184 L9.48685359,8.04929584 C9.37526365,7.89433574 9.19479706,7.8 9,7.8 L9,7.8 L7.456,7.801 L6.57811075,4.63941368 Z" id="形状结合" fill="url(#linearGradient-1)"></path>
        </g>
    </g>
</svg>