<?xml version="1.0" encoding="UTF-8"?>
<svg width="16px" height="16px" viewBox="0 0 16 16" version="1.1" xmlns="http://www.w3.org/2000/svg" xmlns:xlink="http://www.w3.org/1999/xlink">
    <title>✧ Icon/SystemInformation</title>
    <defs>
        <linearGradient x1="-58.3443692%" y1="257.02083%" x2="77.7048897%" y2="17.2952902%" id="linearGradient-1">
            <stop stop-color="#0019F4" offset="0%"></stop>
            <stop stop-color="#8A62FF" offset="100%"></stop>
        </linearGradient>
    </defs>
    <g id="Symbols" stroke="none" stroke-width="1" fill="none" fill-rule="evenodd">
        <g id="✧-Icon/SystemInformation">
            <rect id="矩形" fill="#FFFFFF" opacity="0" x="0" y="0" width="16" height="16"></rect>
            <path d="M13.4,1.4 C14.0627417,1.4 14.6,1.9372583 14.6,2.6 L14.6,6.2 C14.6,6.8627417 14.0627417,7.4 13.4,7.4 L9.8,7.4 C9.1372583,7.4 8.6,6.8627417 8.6,6.2 L8.6,2.6 C8.6,1.9372583 9.1372583,1.4 9.8,1.4 L13.4,1.4 Z M13.995872,8.8 C14.3272429,8.8 14.595872,9.06862915 14.595872,9.4 C14.595872,9.69823376 14.3782824,9.94564675 14.0931951,9.99214701 L13.995872,10 L9.2,10 C8.86862915,10 8.6,9.73137085 8.6,9.4 C8.6,9.10176624 8.81758973,8.85435325 9.102677,8.80785299 L9.2,8.8 L13.995872,8.8 Z M13.9958717,11.1 C14.3272425,11.1 14.5958717,11.3686292 14.5958717,11.7 C14.5958717,11.9982338 14.3782821,12.2456468 14.0931948,12.292147 L13.9958717,12.3 L11.329205,12.3 C10.9978342,12.3 10.729205,12.0313708 10.729205,11.7 C10.729205,11.4017662 10.9467946,11.1543532 11.2318819,11.107853 L11.329205,11.1 L13.9958717,11.1 Z M13.995872,13.4 C14.3272429,13.4 14.595872,13.6686292 14.595872,14 C14.595872,14.2982338 14.3782824,14.5456468 14.0931951,14.592147 L13.995872,14.6 L9.2,14.6 C8.86862915,14.6 8.6,14.3313708 8.6,14 C8.6,13.7017662 8.81758973,13.4543532 9.102677,13.407853 L9.2,13.4 L13.995872,13.4 Z M6.2,8.6 C6.8627417,8.6 7.4,9.1372583 7.4,9.8 L7.4,13.4 C7.4,14.0627417 6.8627417,14.6 6.2,14.6 L2.6,14.6 C1.9372583,14.6 1.4,14.0627417 1.4,13.4 L1.4,9.8 C1.4,9.1372583 1.9372583,8.6 2.6,8.6 L6.2,8.6 Z M6.2,1.4 C6.8627417,1.4 7.4,1.9372583 7.4,2.6 L7.4,6.2 C7.4,6.8627417 6.8627417,7.4 6.2,7.4 L2.6,7.4 C1.9372583,7.4 1.4,6.8627417 1.4,6.2 L1.4,2.6 C1.4,1.9372583 1.9372583,1.4 2.6,1.4 L6.2,1.4 Z" id="形状结合" fill="url(#linearGradient-1)"></path>
        </g>
    </g>
</svg>