<svg width="200" height="200" viewBox="0 0 200 200" fill="none" xmlns="http://www.w3.org/2000/svg">
<path d="M182.702 182.279L182.702 189.979L17.302 189.98L17.302 182.28L182.702 182.279Z" fill="url(#paint0_linear_843_2632)"/>
<path d="M50.2461 91.4578L50.2461 172.258L17.2461 172.258L17.2461 91.4578L50.2461 91.4578Z" fill="url(#paint1_linear_843_2632)"/>
<path d="M94.387 9.99727L94.387 172.197L61.387 172.197L61.387 9.99727L94.387 9.99727Z" fill="url(#paint2_linear_843_2632)"/>
<path d="M138.548 60.0773L138.548 172.277L105.548 172.277L105.548 60.0773L138.548 60.0773Z" fill="url(#paint3_linear_843_2632)"/>
<path d="M182.679 91.4246L182.679 172.225L149.679 172.225L149.679 91.4246L182.679 91.4246Z" fill="url(#paint4_linear_843_2632)"/>
<defs>
<linearGradient id="paint0_linear_843_2632" x1="17" y1="186" x2="183" y2="186" gradientUnits="userSpaceOnUse">
<stop stop-color="#9470FF"/>
<stop offset="1" stop-color="#8560EC"/>
</linearGradient>
<linearGradient id="paint1_linear_843_2632" x1="33.7461" y1="91.4578" x2="33.7461" y2="172.258" gradientUnits="userSpaceOnUse">
<stop stop-color="#BFBFBF"/>
<stop offset="1" stop-color="#BFBFBF" stop-opacity="0.4"/>
</linearGradient>
<linearGradient id="paint2_linear_843_2632" x1="77.887" y1="9.99727" x2="77.887" y2="172.197" gradientUnits="userSpaceOnUse">
<stop stop-color="#9470FF"/>
<stop offset="1" stop-color="#9470FF" stop-opacity="0.4"/>
</linearGradient>
<linearGradient id="paint3_linear_843_2632" x1="122.048" y1="60.0773" x2="122.048" y2="172.277" gradientUnits="userSpaceOnUse">
<stop stop-color="#FA9E00"/>
<stop offset="1" stop-color="#FA9E00" stop-opacity="0.4"/>
</linearGradient>
<linearGradient id="paint4_linear_843_2632" x1="166.179" y1="91.4246" x2="166.179" y2="172.225" gradientUnits="userSpaceOnUse">
<stop stop-color="#9470FF"/>
<stop offset="1" stop-color="#9470FF" stop-opacity="0.4"/>
</linearGradient>
</defs>
</svg>
