<svg width="200" height="200" viewBox="0 0 200 200" fill="none" xmlns="http://www.w3.org/2000/svg">
<path d="M134.278 32.3015C123.742 27.9253 112.157 25.5 100 25.5C51.424 25.5 12 64.22 12 111.388C12 128.988 17.632 145.18 26.784 159.26L61.984 135.324C57.056 128.284 54.24 119.836 54.24 111.388C54.24 87.452 74.656 67.74 100 67.74C104.81 67.74 109.442 68.4499 113.791 69.7639L134.278 32.3015Z" fill="url(#paint0_linear_924_2710)"/>
<path fill-rule="evenodd" clip-rule="evenodd" d="M155.979 45.373L139.055 88.7604C143.76 96.2133 145.69 104.696 145.69 112.937C145.69 118.569 144.282 127.017 137.946 135.465L173.146 159.401C182.298 146.025 187.93 129.129 187.93 111.529C187.93 84.9637 175.503 60.9877 155.979 45.373Z" fill="url(#paint1_linear_924_2710)"/>
<path d="M148.576 36.8347L109.856 136.099H100L95.072 124.835L144.352 34.7227L148.576 36.8347Z" fill="url(#paint2_linear_924_2710)"/>
<path d="M55 150.502H145L158 159.502H42L55 150.502Z" fill="url(#paint3_linear_924_2710)"/>
<path d="M37 165.502H165.5L178.5 174.502H24L37 165.502Z" fill="url(#paint4_linear_924_2710)"/>
<defs>
<linearGradient id="paint0_linear_924_2710" x1="121" y1="40" x2="27" y2="159" gradientUnits="userSpaceOnUse">
<stop stop-color="#9470FF"/>
<stop offset="1" stop-color="#9470FF" stop-opacity="0.4"/>
</linearGradient>
<linearGradient id="paint1_linear_924_2710" x1="143" y1="72" x2="163" y2="145" gradientUnits="userSpaceOnUse">
<stop stop-color="#BFBFBF"/>
<stop offset="1" stop-color="#BFBFBF" stop-opacity="0.4"/>
</linearGradient>
<linearGradient id="paint2_linear_924_2710" x1="94.9554" y1="68.044" x2="147.2" y2="68.044" gradientUnits="userSpaceOnUse">
<stop stop-color="#FA9E00"/>
<stop offset="1" stop-color="#FFB941"/>
</linearGradient>
<linearGradient id="paint3_linear_924_2710" x1="41.7467" y1="153.435" x2="155.017" y2="153.435" gradientUnits="userSpaceOnUse">
<stop stop-color="#9470FF"/>
<stop offset="1" stop-color="#8560EC"/>
</linearGradient>
<linearGradient id="paint4_linear_924_2710" x1="23.6626" y1="168.435" x2="174.527" y2="168.435" gradientUnits="userSpaceOnUse">
<stop stop-color="#9470FF"/>
<stop offset="1" stop-color="#8560EC"/>
</linearGradient>
</defs>
</svg>
