<svg width="200" height="200" viewBox="0 0 200 200" fill="none" xmlns="http://www.w3.org/2000/svg">
<path fill-rule="evenodd" clip-rule="evenodd" d="M42.3094 17H142.696C142.688 17.1021 142.684 17.2047 142.682 17.3075L142.682 17.3426V39.0184C142.682 40.7616 143.374 42.4334 144.607 43.6661C145.84 44.8987 147.511 45.5912 149.255 45.5912H170.93L170.966 45.5907C171.068 45.5892 171.171 45.5847 171.273 45.5772V111H29.7275V29.5818C29.7275 26.2449 31.0531 23.0447 33.4127 20.6851C35.7722 18.3256 38.9725 17 42.3094 17ZM118.973 36H90.2092C89.1607 36 88.6365 36.5242 88.6365 37.5727V42.2909C88.6365 43.3394 89.1607 43.8636 90.2092 43.8636H118.973C120.021 43.8636 120.546 43.3394 120.546 42.2909V37.5727C120.546 36.5242 120.021 36 118.973 36ZM47.0273 61.7266H153.973C155.021 61.7266 155.546 62.2508 155.546 63.2993V68.0175C155.546 69.066 155.021 69.5902 153.973 69.5902H47.0273C45.9788 69.5902 45.4546 69.066 45.4546 68.0175V63.2993C45.4546 62.2508 45.9788 61.7266 47.0273 61.7266ZM109.427 86H46.5727C45.5242 86 45 86.5242 45 87.5727V92.2909C45 93.3394 45.5242 93.8636 46.5727 93.8636H109.427C110.476 93.8636 111 93.3394 111 92.2909V87.5727C111 86.5242 110.476 86 109.427 86ZM47.0273 36H75.3364C76.3849 36 76.9091 36.5242 76.9091 37.5727V42.2909C76.9091 43.3394 76.3849 43.8636 75.3364 43.8636H47.0273C45.9788 43.8636 45.4546 43.3394 45.4546 42.2909V37.5727C45.4546 36.5242 45.9788 36 47.0273 36ZM153.882 86H125.573C124.524 86 124 86.5242 124 87.5727V92.2909C124 93.3394 124.524 93.8636 125.573 93.8636H153.882C154.93 93.8636 155.455 93.3394 155.455 92.2909V87.5727C155.455 86.5242 154.93 86 153.882 86Z" fill="url(#paint0_linear_924_2785)"/>
<path d="M125.573 86H153.882C154.93 86 155.455 86.5242 155.455 87.5727V92.2909C155.455 93.3394 154.93 93.8636 153.882 93.8636H125.573C124.524 93.8636 124 93.3394 124 92.2909V87.5727C124 86.5242 124.524 86 125.573 86Z" fill="#FFC13C"/>
<path d="M147.949 17.2676L171.005 40.3238C171.027 40.3458 171.042 40.3736 171.047 40.4038C171.053 40.4341 171.05 40.4653 171.039 40.4938C171.027 40.5223 171.007 40.5467 170.982 40.564C170.956 40.5813 170.926 40.5907 170.895 40.5912H149.255C148.837 40.5912 148.437 40.4255 148.143 40.1305C147.848 39.8356 147.682 39.4356 147.682 39.0184V17.3777C147.682 17.3469 147.692 17.317 147.709 17.2915C147.726 17.266 147.751 17.2462 147.779 17.2345C147.808 17.2228 147.839 17.2197 147.869 17.2256C147.899 17.2314 147.927 17.2461 147.949 17.2676Z" fill="#BFBFBF"/>
<path fill-rule="evenodd" clip-rule="evenodd" d="M89.8133 130.747C86.8788 128.028 85.0905 124.294 84.812 120.304C84.7649 119.698 84.2616 119.227 83.6561 119.227H26.5818C23.2449 119.227 20.0447 120.552 17.6851 122.912C15.3256 125.271 14 128.471 14 131.808V169.554C14 172.891 15.3256 176.091 17.6851 178.451C20.0447 180.81 23.2449 182.136 26.5818 182.136H174.418C177.755 182.136 180.955 180.81 183.315 178.451C185.674 176.091 187 172.891 187 169.554V131.808C187 128.471 185.674 125.271 183.315 122.912C180.955 120.552 177.755 119.227 174.418 119.227H117.116C116.882 119.226 116.657 119.316 116.487 119.477C116.317 119.638 116.216 119.858 116.204 120.092C115.979 124.085 114.242 127.843 111.344 130.601C108.447 133.359 104.607 134.909 100.608 134.936C96.6076 134.963 92.7477 133.465 89.8133 130.747ZM164.982 142.82H130.382C126.188 142.82 124.091 144.917 124.091 149.111V167.984C124.091 172.178 126.188 174.275 130.382 174.275H164.982C169.176 174.275 171.273 172.178 171.273 167.984V149.111C171.273 144.917 169.176 142.82 164.982 142.82Z" fill="url(#paint1_linear_924_2785)"/>
<path d="M133.527 150.682H146.109C147.158 150.682 147.682 151.206 147.682 152.254V156.973C147.682 158.021 147.158 158.545 146.109 158.545H133.527C132.479 158.545 131.955 158.021 131.955 156.973V152.254C131.955 151.206 132.479 150.682 133.527 150.682Z" fill="url(#paint2_linear_924_2785)"/>
<defs>
<linearGradient id="paint0_linear_924_2785" x1="100.5" y1="17" x2="100.5" y2="111" gradientUnits="userSpaceOnUse">
<stop stop-color="#BFBFBF"/>
<stop offset="1" stop-color="#BFBFBF" stop-opacity="0.4"/>
</linearGradient>
<linearGradient id="paint1_linear_924_2785" x1="14.2933" y1="150.681" x2="186.707" y2="150.681" gradientUnits="userSpaceOnUse">
<stop stop-color="#9470FF"/>
<stop offset="1" stop-color="#8560EC"/>
</linearGradient>
<linearGradient id="paint2_linear_924_2785" x1="131.92" y1="153.266" x2="147.277" y2="153.266" gradientUnits="userSpaceOnUse">
<stop stop-color="#FA9E00"/>
<stop offset="1" stop-color="#FFB941"/>
</linearGradient>
</defs>
</svg>
