<svg width="200" height="200" viewBox="0 0 200 200" fill="none" xmlns="http://www.w3.org/2000/svg">
<path d="M162 48H185V15H141L162 48Z" fill="url(#paint0_linear_926_2863)"/>
<rect x="34" y="126.902" width="42.756" height="57.9194" fill="url(#paint1_linear_926_2863)"/>
<rect x="34" y="59" width="42.756" height="56.9032" fill="url(#paint2_linear_926_2863)"/>
<rect x="87.6572" y="59" width="43.6854" height="56.9032" fill="url(#paint3_linear_926_2863)"/>
<rect x="142.244" y="59" width="42.756" height="56.9032" fill="url(#paint4_linear_926_2863)"/>
<path d="M87.6572 126.902H131.343V184.822H87.6572V126.902Z" fill="url(#paint5_linear_926_2863)"/>
<path d="M142 127H184.756V184.919H142V127Z" fill="url(#paint6_linear_926_2863)"/>
<path fill-rule="evenodd" clip-rule="evenodd" d="M124.5 15L15 15L15 37.0192L15 48L15 185L23 184.981L23 48L145.5 48L124.5 15Z" fill="url(#paint7_linear_926_2863)"/>
<defs>
<linearGradient id="paint0_linear_926_2863" x1="140.904" y1="25.8468" x2="183.868" y2="25.8468" gradientUnits="userSpaceOnUse">
<stop stop-color="#FFB941"/>
<stop offset="1" stop-color="#FA9E00"/>
</linearGradient>
<linearGradient id="paint1_linear_926_2863" x1="55.3781" y1="126.902" x2="55.3781" y2="184.822" gradientUnits="userSpaceOnUse">
<stop stop-color="#BFBFBF"/>
<stop offset="1" stop-color="#BFBFBF" stop-opacity="0.4"/>
</linearGradient>
<linearGradient id="paint2_linear_926_2863" x1="55.3781" y1="59" x2="55.3781" y2="115.903" gradientUnits="userSpaceOnUse">
<stop stop-color="#BFBFBF"/>
<stop offset="1" stop-color="#BFBFBF" stop-opacity="0.4"/>
</linearGradient>
<linearGradient id="paint3_linear_926_2863" x1="109.5" y1="59" x2="109.5" y2="115.903" gradientUnits="userSpaceOnUse">
<stop stop-color="#BFBFBF"/>
<stop offset="1" stop-color="#BFBFBF" stop-opacity="0.4"/>
</linearGradient>
<linearGradient id="paint4_linear_926_2863" x1="163.622" y1="59" x2="163.622" y2="115.903" gradientUnits="userSpaceOnUse">
<stop stop-color="#BFBFBF"/>
<stop offset="1" stop-color="#BFBFBF" stop-opacity="0.4"/>
</linearGradient>
<linearGradient id="paint5_linear_926_2863" x1="136.194" y1="126.902" x2="136.219" y2="184.919" gradientUnits="userSpaceOnUse">
<stop stop-color="#9470FF"/>
<stop offset="1" stop-color="#9470FF" stop-opacity="0.4"/>
</linearGradient>
<linearGradient id="paint6_linear_926_2863" x1="136.194" y1="126.902" x2="136.219" y2="184.919" gradientUnits="userSpaceOnUse">
<stop stop-color="#9470FF"/>
<stop offset="1" stop-color="#9470FF" stop-opacity="0.4"/>
</linearGradient>
<linearGradient id="paint7_linear_926_2863" x1="15" y1="40.0012" x2="145.5" y2="40.0011" gradientUnits="userSpaceOnUse">
<stop stop-color="#9470FF"/>
<stop offset="1" stop-color="#8560EC"/>
</linearGradient>
</defs>
</svg>
