<svg width="200" height="200" viewBox="0 0 200 200" fill="none" xmlns="http://www.w3.org/2000/svg">
<path fill-rule="evenodd" clip-rule="evenodd" d="M31.6747 52.4453C26.4646 52.4453 22.241 56.6689 22.241 61.879V146.783C22.241 151.993 26.4646 156.216 31.6747 156.216H176.325C181.535 156.216 185.759 151.993 185.759 146.783V61.879C185.759 56.6689 181.535 52.4453 176.325 52.4453H31.6747ZM57.9508 69.2164C55.8946 69.2164 53.9328 70.0792 52.543 71.5946C51.2624 72.9911 49.5325 74.4223 47.2146 75.9184C44.9423 77.2268 42.9905 78.0298 41.3436 78.4617C38.1172 79.3078 35.8675 82.2236 35.8675 85.5591V94.8848C35.8675 97.2059 36.9657 99.39 38.8288 100.774C40.6919 102.159 43.1001 102.58 45.3224 101.91C46.3682 101.595 47.3896 101.248 48.3857 100.868V133.96C48.3857 138.012 51.6707 141.297 55.723 141.297H64.7099C67.0484 141.297 69.1313 140.203 70.4749 138.499C71.8186 140.203 73.9015 141.297 76.24 141.297H113.872C117.925 141.297 121.21 138.012 121.21 133.96V127.74C122.616 130.508 124.515 132.998 126.968 135.109C132.017 139.462 138.403 141.297 145.304 141.297C152.698 141.297 159.344 139.119 164.561 134.341L164.611 134.295C169.696 129.55 172.165 123.373 172.165 116.397C172.165 111.757 170.845 107.257 167.697 103.602C167.658 103.556 167.619 103.51 167.58 103.464C170.065 100.009 171.106 95.9693 171.106 91.7941C171.106 85.072 168.656 79.1943 163.545 74.9389C163.524 74.9213 163.502 74.9038 163.481 74.8864C158.477 70.8151 152.2 69.2164 145.606 69.2164C138.921 69.2164 132.677 71.1013 127.666 75.6098C124.038 78.7322 121.678 82.6212 120.355 86.9932C119.297 82.8092 117.151 79.083 113.858 75.9608C113.839 75.9423 113.819 75.9239 113.799 75.9056C108.871 71.3346 102.705 69.2164 95.8877 69.2164C88.1388 69.2164 81.3827 72.0461 76.3314 77.8479C74.5503 79.8384 73.1334 82.0165 72.0472 84.351V76.5537C72.0472 72.5014 68.7622 69.2164 64.7099 69.2164H57.9508Z" fill="url(#paint0_linear_849_2691)"/>
<path d="M57.9508 76.5547C56.1082 78.5639 53.8027 80.4139 51.038 82.1842C48.2732 83.7916 45.6622 84.9156 43.2048 85.56V94.8857C48.2732 93.358 52.4213 91.0266 55.7231 87.8915V133.961H64.7099V76.5547H57.9508Z" fill="url(#paint1_linear_849_2691)"/>
<path d="M95.8877 76.5547C90.0693 76.5547 85.3842 78.6046 81.8324 82.7045C78.3566 86.5693 76.6178 91.6154 76.5418 97.9245H85.3842C85.5342 93.508 86.4416 90.1173 88.1045 87.91C89.7674 85.5434 92.26 84.3619 95.5858 84.3619C98.6839 84.3619 101.026 85.0711 102.613 86.5693C104.125 88.0674 104.956 90.3544 104.956 93.4302C104.956 96.5838 103.747 99.5801 101.404 102.339C99.8931 103.997 97.4747 106.124 93.997 108.648C87.7268 113.143 83.5713 116.611 81.6047 118.978C77.977 123.237 76.24 128.203 76.24 133.961H113.872V125.839H87.2731C88.4823 123 91.8063 119.689 97.3228 115.904C102.613 112.196 106.391 109.2 108.508 106.835C111.984 102.813 113.798 98.3968 113.798 93.508C113.798 88.4618 112.135 84.4397 108.81 81.2861C105.41 78.1324 101.102 76.5547 95.8877 76.5547Z" fill="url(#paint2_linear_849_2691)"/>
<path d="M145.606 76.5547C140.31 76.5547 135.921 78.025 132.514 81.1194C128.884 84.2138 126.916 88.5451 126.462 94.1172H135.165C135.467 90.7895 136.526 88.3137 138.341 86.6896C140.082 85.0656 142.504 84.2915 145.682 84.2915C148.785 84.2915 151.132 84.9878 152.719 86.3804C154.157 87.7729 154.915 89.784 154.915 92.4913C154.915 95.2005 154.082 97.2875 152.493 98.6819C150.828 100.074 148.406 100.771 145.228 100.771H141.445V107.578H145.228C148.709 107.578 151.358 108.274 153.172 109.822C154.991 111.293 155.974 113.613 155.974 116.785C155.974 119.415 155.067 121.581 153.326 123.361C151.358 125.296 148.634 126.302 145.228 126.302C142.126 126.302 139.628 125.374 137.737 123.594C135.617 121.659 134.558 118.874 134.408 115.317H125.403C125.856 121.505 127.977 126.302 131.758 129.552C135.165 132.49 139.704 133.961 145.304 133.961C151.206 133.961 155.974 132.257 159.605 128.931C163.087 125.683 164.828 121.505 164.828 116.398C164.828 113.148 163.92 110.441 162.104 108.352C160.437 106.341 157.941 104.871 154.763 103.865C160.741 101.854 163.768 97.8301 163.768 91.7951C163.768 86.9989 162.102 83.286 158.85 80.5787C155.52 77.8695 151.054 76.5547 145.606 76.5547Z" fill="url(#paint3_linear_849_2691)"/>
<path d="M184.813 21C188.23 21 191 23.7699 191 27.1867V38.4C191 41.6033 188.403 44.2 185.2 44.2C181.997 44.2 179.4 41.6033 179.4 38.4V32.6H28.6V38.4C28.6 41.6033 26.0033 44.2 22.8 44.2C19.5967 44.2 17 41.6033 17 38.4V27.1867C17 23.7699 19.7699 21 23.1867 21H184.813ZM186.36 186.614C188.923 186.614 191 184.537 191 181.974V169.214C191 166.011 188.403 163.414 185.2 163.414C181.997 163.414 179.4 166.011 179.4 169.214V175.014H28.6V169.214C28.6 166.011 26.0033 163.414 22.8 163.414C19.5967 163.414 17 166.011 17 169.214V178.229C17 182.86 20.7543 186.614 25.3855 186.614H186.36Z" fill="url(#paint4_linear_849_2691)"/>
<defs>
<linearGradient id="paint0_linear_849_2691" x1="22.5182" y1="104.331" x2="185.482" y2="104.331" gradientUnits="userSpaceOnUse">
<stop stop-color="#9470FF"/>
<stop offset="1" stop-color="#8560EC"/>
</linearGradient>
<linearGradient id="paint1_linear_849_2691" x1="43.1579" y1="95.26" x2="64.1569" y2="95.26" gradientUnits="userSpaceOnUse">
<stop stop-color="#9470FF"/>
<stop offset="1" stop-color="#8560EC"/>
</linearGradient>
<linearGradient id="paint2_linear_849_2691" x1="76.1578" y1="95.26" x2="112.905" y2="95.26" gradientUnits="userSpaceOnUse">
<stop stop-color="#9470FF"/>
<stop offset="1" stop-color="#8560EC"/>
</linearGradient>
<linearGradient id="paint3_linear_849_2691" x1="125.317" y1="95.4235" x2="163.814" y2="95.4235" gradientUnits="userSpaceOnUse">
<stop stop-color="#FA9E00"/>
<stop offset="1" stop-color="#FFB941"/>
</linearGradient>
<linearGradient id="paint4_linear_849_2691" x1="191" y1="103.807" x2="17" y2="103.807" gradientUnits="userSpaceOnUse">
<stop stop-color="#BFBFBF"/>
<stop offset="1" stop-color="#BFBFBF" stop-opacity="0.4"/>
</linearGradient>
</defs>
</svg>
