<svg width="200" height="200" viewBox="0 0 200 200" fill="none" xmlns="http://www.w3.org/2000/svg">
<path d="M180.813 17C184.23 17 187 19.7699 187 23.1867V34.4C187 37.6033 184.403 40.2 181.2 40.2C177.997 40.2 175.4 37.6033 175.4 34.4V28.6H24.6V34.4C24.6 37.6033 22.0033 40.2 18.8 40.2C15.5967 40.2 13 37.6033 13 34.4V23.1867C13 19.7699 15.7699 17 19.1867 17H180.813ZM182.36 182.614C184.923 182.614 187 180.537 187 177.974V165.214C187 162.011 184.403 159.414 181.2 159.414C177.997 159.414 175.4 162.011 175.4 165.214V171.014H24.6V165.214C24.6 162.011 22.0033 159.414 18.8 159.414C15.5967 159.414 13 162.011 13 165.214V174.229C13 178.86 16.7543 182.614 21.3855 182.614H182.36Z" fill="url(#paint0_linear_912_2697)"/>
<path fill-rule="evenodd" clip-rule="evenodd" d="M40.253 39.0117C36.7796 39.0117 33.9639 41.8275 33.9639 45.3009V155.361C33.9639 158.835 36.7796 161.65 40.253 161.65H159.747C163.22 161.65 166.036 158.835 166.036 155.361V45.3009C166.036 41.8275 163.22 39.0117 159.747 39.0117H40.253ZM68.1173 53.7736C67.7209 53.716 67.3175 53.6864 66.9095 53.6864C64.1044 53.6864 61.4164 54.8023 59.4363 56.785C57.4787 58.7451 56.3712 61.3934 56.3466 64.1582L55.977 86.7064C55.9763 86.7522 55.9759 86.798 55.9759 86.8438C55.9759 89.6427 57.0862 92.3291 59.066 94.3114C61.0462 96.2942 63.7342 97.41 66.5393 97.41H67.8895C67.9256 97.41 67.9616 97.4098 67.9977 97.4093C70.2814 97.3798 72.4931 96.6109 74.3019 95.2191C76.1106 93.8275 77.4189 91.8885 78.0335 89.6933C78.0408 89.6674 78.0479 89.6414 78.0549 89.6155C79.3909 84.66 81.1062 81.4243 82.8502 79.3852V125.701C82.266 125.774 81.5417 125.827 80.6585 125.844C79.3045 125.857 77.9655 126.13 76.7145 126.649C75.4321 127.181 74.2676 127.96 73.2872 128.942C72.3068 129.923 71.5297 131.088 70.9997 132.369C70.4697 133.651 70.1971 135.023 70.1971 136.409C70.1971 139.208 71.3074 141.895 73.2872 143.877C75.2674 145.86 77.9554 146.976 80.7604 146.976H119.743C122.548 146.976 125.236 145.86 127.217 143.877C129.196 141.895 130.307 139.208 130.307 136.409C130.307 135.023 130.034 133.651 129.504 132.369C128.974 131.088 128.197 129.923 127.217 128.942C126.236 127.96 125.072 127.181 123.789 126.649C122.544 126.132 121.211 125.859 119.863 125.844C119.153 125.828 118.566 125.783 118.089 125.724V79.4814C119.837 81.5194 121.552 84.7507 122.883 89.6986C122.89 89.7243 122.897 89.7499 122.904 89.7755C123.542 92.0589 124.93 94.063 126.846 95.4637C128.705 96.8225 130.956 97.5359 133.256 97.4972H134.509C135.898 97.4972 137.273 97.2233 138.555 96.6915C139.837 96.1596 141.002 95.3803 141.982 94.3987C142.963 93.417 143.74 92.2522 144.27 90.971C144.8 89.6899 145.072 88.3172 145.072 86.9311C145.072 86.8853 145.072 86.8395 145.071 86.7937L144.702 64.2456C144.677 61.4808 143.57 58.8324 141.612 56.8722C139.632 54.8895 136.944 53.7736 134.139 53.7736H68.1173Z" fill="url(#paint1_linear_912_2697)"/>
<path d="M66.844 62.1595H134.139C134.716 62.1595 135.27 62.3892 135.679 62.7982C136.087 63.2071 136.316 63.7618 136.316 64.3401L136.687 86.9314C136.687 87.2177 136.63 87.5013 136.521 87.7659C136.411 88.0304 136.251 88.2708 136.049 88.4733C135.847 88.6758 135.606 88.8364 135.342 88.946C135.078 89.0556 134.795 89.112 134.509 89.112H133.159C132.67 89.1301 132.189 88.9829 131.794 88.6941C131.399 88.4053 131.112 87.9918 130.981 87.5201C127.656 75.1633 121.362 68.5051 112.099 67.5456C111.795 67.5151 111.489 67.5488 111.199 67.6446C110.909 67.7404 110.642 67.8962 110.416 68.1018C110.19 68.3074 110.01 68.5583 109.887 68.8381C109.765 69.118 109.702 69.4206 109.703 69.7263V126.946C109.224 131.656 112.571 134.084 119.743 134.229C120.029 134.229 120.312 134.286 120.577 134.395C120.841 134.505 121.081 134.665 121.283 134.868C121.485 135.07 121.646 135.311 121.755 135.575C121.865 135.84 121.921 136.123 121.921 136.41C121.921 136.988 121.692 137.543 121.283 137.952C120.875 138.361 120.321 138.59 119.743 138.59H80.7603C80.1827 138.59 79.6288 138.361 79.2203 137.952C78.8119 137.543 78.5825 136.988 78.5825 136.41C78.5825 136.123 78.6388 135.84 78.7483 135.575C78.8577 135.311 79.0181 135.07 79.2203 134.868C79.4226 134.665 79.6627 134.505 79.9269 134.395C80.1911 134.286 80.4743 134.229 80.7603 134.229C88.4262 134.098 91.9325 131.7 91.2356 127.011C91.2248 126.895 91.2248 126.778 91.2356 126.662V69.639C91.2371 69.3334 91.1745 69.0308 91.0516 68.7509C90.9288 68.4711 90.7487 68.2202 90.5228 68.0146C90.2969 67.8089 90.0303 67.6532 89.7404 67.5574C89.4505 67.4615 89.1437 67.4278 88.84 67.4584C79.5915 68.3888 73.2976 75.047 69.9583 87.4329C69.8314 87.8864 69.5612 88.2865 69.1883 88.5734C68.8154 88.8604 68.3597 89.0187 67.8894 89.0248H66.5391C65.9616 89.0248 65.4076 88.795 64.9992 88.3861C64.5908 87.9771 64.3613 87.4225 64.3613 86.8441L64.7316 64.2529C64.7316 63.6746 64.961 63.1199 65.3694 62.711C65.7778 62.302 66.3318 62.0723 66.9094 62.0723L66.844 62.1595Z" fill="url(#paint2_linear_912_2697)"/>
<defs>
<linearGradient id="paint0_linear_912_2697" x1="187" y1="99.8072" x2="13" y2="99.8072" gradientUnits="userSpaceOnUse">
<stop stop-color="#BFBFBF"/>
<stop offset="1" stop-color="#BFBFBF" stop-opacity="0.4"/>
</linearGradient>
<linearGradient id="paint1_linear_912_2697" x1="34.1878" y1="100.331" x2="165.812" y2="100.331" gradientUnits="userSpaceOnUse">
<stop stop-color="#9470FF"/>
<stop offset="1" stop-color="#8560EC"/>
</linearGradient>
<linearGradient id="paint2_linear_912_2697" x1="64.2037" y1="87.223" x2="134.827" y2="87.223" gradientUnits="userSpaceOnUse">
<stop stop-color="#FA9E00"/>
<stop offset="1" stop-color="#FFB941"/>
</linearGradient>
</defs>
</svg>
