<?xml version="1.0" encoding="UTF-8"?>
<svg width="32px" height="32px" viewBox="0 0 32 32" version="1.1" xmlns="http://www.w3.org/2000/svg" xmlns:xlink="http://www.w3.org/1999/xlink">
    <title>City</title>
    <g id="页面-1" stroke="none" stroke-width="1" fill="none" fill-rule="evenodd">
        <g id="pingmesh网络质量" transform="translate(-740.000000, -234.000000)" fill="#6C53B1">
            <g id="品类列表" transform="translate(705.000000, 188.000000)">
                <g id="City" transform="translate(35.000000, 46.000000)">
                    <rect id="矩形" fill-opacity="0" x="0" y="0" width="32" height="32"></rect>
                    <path d="M24.4266667,3.2 C25.7698232,3.2 26.8688392,4.24528975 26.9546114,5.56676597 L26.96,5.73333333 L26.96,26.2466667 C26.96,26.2915726 26.9588316,26.3362056 26.9565235,26.380537 L28.2,26.38 C28.8627417,26.38 29.4,26.9172583 29.4,27.58 C29.4,28.1764675 28.9648208,28.6712935 28.3946462,28.764294 L28.2,28.78 L3.8,28.78 C3.1372583,28.78 2.6,28.2427417 2.6,27.58 C2.6,26.9835325 3.03517922,26.4887065 3.60535377,26.395706 L3.8,26.38 L5.044,26.38 L5.04,26.2466667 L5.04,16.7133333 C5.04,15.3701768 6.08528975,14.2711608 7.40676597,14.1853886 L7.57333333,14.18 L12.2266667,14.18 C12.2715726,14.18 12.3162056,14.1811684 12.360537,14.1834765 L12.36,5.73333333 C12.36,4.39017682 13.4052897,3.29116081 14.726766,3.20538858 L14.8933333,3.2 L24.4266667,3.2 Z M12.2266667,16.58 L7.57333333,16.58 C7.51442296,16.58 7.46443585,16.618205 7.44679742,16.6711897 L7.44,16.7133333 L7.44,26.2466667 C7.44,26.305577 7.47820503,26.3555641 7.53118969,26.3732026 L7.57333333,26.38 L12.2266667,26.38 C12.285577,26.38 12.3355641,26.341795 12.3532026,26.2888103 L12.36,26.2466667 L12.36,16.7133333 C12.36,16.6396954 12.3003046,16.58 12.2266667,16.58 Z M24.4266667,5.6 L14.8933333,5.6 C14.834423,5.6 14.7844359,5.63820503 14.7667974,5.69118969 L14.76,5.73333333 L14.76,26.2466667 C14.76,26.305577 14.798205,26.3555641 14.8511897,26.3732026 L14.8933333,26.38 L24.4266667,26.38 C24.485577,26.38 24.5355641,26.341795 24.5532026,26.2888103 L24.56,26.2466667 L24.56,5.73333333 C24.56,5.65969537 24.5003046,5.6 24.4266667,5.6 Z M20.88,20.485063 C21.4322847,20.485063 21.88,20.9327783 21.88,21.485063 C21.88,21.9759828 21.5262497,22.3842797 21.0597513,22.4689517 L20.88,22.485063 L18.44,22.485063 C17.8877153,22.485063 17.44,22.0373477 17.44,21.485063 C17.44,20.9941432 17.7937503,20.5858463 18.2602487,20.5011743 L18.44,20.485063 L20.88,20.485063 Z M10.7133333,20.485063 C11.2656181,20.485063 11.7133333,20.9327783 11.7133333,21.485063 C11.7133333,21.9759828 11.359583,22.3842797 10.8930846,22.4689517 L10.7133333,22.485063 L9.08666667,22.485063 C8.53438192,22.485063 8.08666667,22.0373477 8.08666667,21.485063 C8.08666667,20.9941432 8.44041699,20.5858463 8.9069154,20.5011743 L9.08666667,20.485063 L10.7133333,20.485063 Z M20.88,14.995063 C21.4322847,14.995063 21.88,15.4427783 21.88,15.995063 C21.88,16.4859828 21.5262497,16.8942797 21.0597513,16.9789517 L20.88,16.995063 L18.44,16.995063 C17.8877153,16.995063 17.44,16.5473477 17.44,15.995063 C17.44,15.5041432 17.7937503,15.0958463 18.2602487,15.0111743 L18.44,14.995063 L20.88,14.995063 Z M20.88,9.505063 C21.4322847,9.505063 21.88,9.95277825 21.88,10.505063 C21.88,10.9959828 21.5262497,11.4042797 21.0597513,11.4889517 L20.88,11.505063 L18.44,11.505063 C17.8877153,11.505063 17.44,11.0573477 17.44,10.505063 C17.44,10.0141432 17.7937503,9.60584626 18.2602487,9.52117434 L18.44,9.505063 L20.88,9.505063 Z" id="形状结合" fill-rule="nonzero"></path>
                </g>
            </g>
        </g>
    </g>
</svg>