<svg width="64" height="64" viewBox="0 0 64 64" fill="none" xmlns="http://www.w3.org/2000/svg">
<path d="M42.8301 38.4111C44.0748 38.509 45.2835 38.6254 46.4512 38.7549L50.3203 44.5586C51.5203 46.3886 54.0302 46.7887 55.7402 45.4287C57.2588 44.2208 57.5694 42.091 56.5693 40.5156C61.2082 41.7303 64 43.2935 64 45C64 48.866 49.6731 52 32 52C14.3269 52 0 48.866 0 45C0 43.3673 2.55612 41.8674 6.83984 40.6768V40.999C6.83985 42.609 8.10043 43.919 9.69043 43.999H39.9902C41.52 43.919 42.7499 42.6892 42.8301 41.1494V38.4111Z" fill="#7B778D" fill-opacity="0.12"/>
<path d="M24.9404 21.999C24.5304 25.479 25.4403 29.1096 27.7803 32.0596C31.2202 36.3992 36.7901 38.0593 41.8398 36.7695V40.999C41.8398 42.099 40.9398 42.999 39.8398 42.999H9.83984C8.73995 42.9989 7.83984 42.0989 7.83984 40.999V23.999C7.83988 22.8991 8.73998 21.9992 9.83984 21.999H24.9404ZM12.8398 35.999C11.74 35.9992 10.8398 36.8991 10.8398 37.999C10.8398 39.0989 11.74 39.9989 12.8398 39.999C13.9398 39.999 14.8398 39.099 14.8398 37.999C14.8398 36.899 13.9398 35.999 12.8398 35.999ZM18.8398 35.999C17.74 35.9992 16.8398 36.8991 16.8398 37.999C16.8398 39.0989 17.74 39.9989 18.8398 39.999C19.9398 39.999 20.8398 39.099 20.8398 37.999C20.8398 36.899 19.9398 35.999 18.8398 35.999ZM24.8398 35.999C23.74 35.9992 22.8398 36.8991 22.8398 37.999C22.8398 39.0989 23.74 39.9989 24.8398 39.999C25.9398 39.999 26.8398 39.099 26.8398 37.999C26.8398 36.899 25.9398 35.999 24.8398 35.999ZM39.8398 21.999C40.9398 21.999 41.8398 22.899 41.8398 23.999V32.4688C38.0699 33.9087 33.64 32.8288 31 29.5088C29.2601 27.3088 28.6596 24.5689 29.0996 21.999H39.8398Z" fill="#7B778D" fill-opacity="0.05"/>
<path d="M12.8401 35.999C11.7401 35.999 10.8401 36.899 10.8401 37.999C10.8401 39.099 11.7401 39.999 12.8401 39.999C13.9401 39.999 14.8401 39.099 14.8401 37.999C14.8401 36.899 13.9401 35.999 12.8401 35.999ZM12.8401 38.999C12.2901 38.999 11.8401 38.549 11.8401 37.999C11.8401 37.449 12.2901 36.999 12.8401 36.999C13.3901 36.999 13.8401 37.449 13.8401 37.999C13.8401 38.549 13.3901 38.999 12.8401 38.999Z" fill="#7B778D" fill-opacity="0.3"/>
<path d="M18.8401 35.999C17.7401 35.999 16.8401 36.899 16.8401 37.999C16.8401 39.099 17.7401 39.999 18.8401 39.999C19.9401 39.999 20.8401 39.099 20.8401 37.999C20.8401 36.899 19.9401 35.999 18.8401 35.999ZM18.8401 38.999C18.2901 38.999 17.8401 38.549 17.8401 37.999C17.8401 37.449 18.2901 36.999 18.8401 36.999C19.3901 36.999 19.8401 37.449 19.8401 37.999C19.8401 38.549 19.3901 38.999 18.8401 38.999Z" fill="#7B778D" fill-opacity="0.3"/>
<path d="M24.8401 35.999C23.7401 35.999 22.8401 36.899 22.8401 37.999C22.8401 39.099 23.7401 39.999 24.8401 39.999C25.9401 39.999 26.8401 39.099 26.8401 37.999C26.8401 36.899 25.9401 35.999 24.8401 35.999ZM24.8401 38.999C24.2901 38.999 23.8401 38.549 23.8401 37.999C23.8401 37.449 24.2901 36.999 24.8401 36.999C25.3901 36.999 25.8401 37.449 25.8401 37.999C25.8401 38.549 25.3901 38.999 24.8401 38.999Z" fill="#7B778D" fill-opacity="0.3"/>
<path d="M56.1401 39.949L48.9301 32.249C52.9301 27.409 53.1601 20.259 49.1001 15.139C44.4401 9.26902 35.8601 8.27902 29.9801 12.939C27.3401 15.029 25.7001 17.919 25.1001 20.999H9.84009C8.18009 20.999 6.84009 22.339 6.84009 23.999V40.999C6.84009 42.609 8.10009 43.919 9.69009 43.999H39.9901C41.5201 43.919 42.7501 42.689 42.8301 41.149V36.469C43.3901 36.279 43.9401 36.059 44.4801 35.799L50.3201 44.559C51.5201 46.389 54.0301 46.789 55.7401 45.429C57.4501 44.069 57.6301 41.539 56.1301 39.949H56.1401ZM41.8401 40.999C41.8401 42.099 40.9401 42.999 39.8401 42.999H9.84009C8.74009 42.999 7.84009 42.099 7.84009 40.999V23.999C7.84009 22.899 8.74009 21.999 9.84009 21.999H24.9401C24.5301 25.479 25.4401 29.109 27.7801 32.059C31.2201 36.399 36.7901 38.059 41.8401 36.769V40.999ZM41.8401 35.749C37.1001 37.069 31.8101 35.529 28.5601 31.449C24.2401 26.009 25.1601 18.049 30.6001 13.729C36.0401 9.40902 44.0001 10.329 48.3101 15.769C52.5301 21.089 51.7501 28.799 46.6301 33.179C46.5901 33.209 46.5601 33.249 46.5301 33.279L46.2801 33.479C45.2101 34.329 44.0501 34.959 42.8401 35.409C42.5101 35.529 42.1801 35.649 41.8401 35.739V35.749ZM45.3701 35.309C45.9001 34.999 46.4101 34.659 46.9101 34.269L47.3001 33.969C47.3001 33.969 47.3001 33.969 47.3001 33.959C47.3001 33.959 47.3001 33.959 47.3001 33.949C47.6501 33.649 47.9701 33.339 48.2801 33.019L50.2301 35.099L46.9601 37.689L45.3801 35.309H45.3701ZM55.1301 44.639C53.8801 45.629 52.0401 45.339 51.1601 43.999L47.5101 38.509L50.9101 35.809L55.4101 40.619C56.5101 41.789 56.3801 43.639 55.1301 44.629V44.639Z" fill="#7B778D" fill-opacity="0.3"/>
<path d="M46.67 17.0789C43.07 12.5489 36.46 11.7789 31.92 15.3789C27.39 18.9789 26.62 25.5889 30.22 30.1289C33.82 34.6589 40.43 35.4289 44.97 31.8289C49.5 28.2289 50.27 21.6189 46.67 17.0789ZM31 29.5089C29.26 27.3089 28.66 24.5689 29.1 21.9989H39.84C40.94 21.9989 41.84 22.8989 41.84 23.9989V32.4689C38.07 33.9089 33.64 32.8289 31 29.5089ZM42.84 32.0189V24.0089C42.84 22.3489 41.5 21.0089 39.84 21.0089H29.32C29.84 19.1589 30.92 17.4489 32.54 16.1689C36.64 12.9189 42.63 13.6089 45.88 17.7089C49.13 21.8089 48.44 27.7989 44.34 31.0489C43.86 31.4289 43.36 31.7489 42.84 32.0189Z" fill="#7B778D" fill-opacity="0.3"/>
</svg>
