<svg width="64" height="64" viewBox="0 0 64 64" fill="none" xmlns="http://www.w3.org/2000/svg">
<path d="M55 40.1348C60.5713 41.3944 64 43.1088 64 45C64 48.866 49.6731 52 32 52C14.3269 52 0 48.866 0 45C0 43.1088 3.42869 41.3944 9 40.1348V43.1367C9 45.1923 10.2386 46.8908 11.7979 46.9951L11.9502 47H52.0498C53.6798 47 55 45.2597 55 43.1367V40.1348Z" fill="#F5F5F5"/>
<path fill-rule="evenodd" clip-rule="evenodd" d="M10 43.1367C10 43.9971 10.269 44.7457 10.6592 45.2578C11.049 45.7694 11.515 46 11.9502 46H52.0498C52.4851 46 52.9511 45.77 53.3408 45.2588C53.731 44.7469 54 43.9978 54 43.1367V26H43.8408L43.751 26.0059C43.5359 26.0343 43.2891 26.1671 43.0615 26.4678C42.8013 26.8117 42.6134 27.3276 42.6133 27.9307V27.9385C42.6132 28.943 42.2998 29.8895 41.75 30.6055C41.1997 31.322 40.3687 31.8506 39.376 31.8506H24.624C22.6151 31.8506 21.3868 29.852 21.3867 27.9502V27.9277C21.3867 27.3246 21.1985 26.8089 20.9385 26.4658C20.679 26.1235 20.3945 26.0001 20.1602 26H10V43.1367Z" fill="#7B778D" fill-opacity="0.05"/>
<path fill-rule="evenodd" clip-rule="evenodd" d="M42.9072 12C43.656 12.0001 44.3666 12.4741 44.8535 13.2578L55 24.7598V43.1367C55 45.2597 53.6798 47 52.0498 47H11.9502L11.7979 46.9951C10.2386 46.8908 9 45.1923 9 43.1367V24.7607L19.1465 13.2568C19.6334 12.4741 20.344 12.0001 21.0928 12H42.9072ZM10 43.1367C10 43.9971 10.269 44.7457 10.6592 45.2578C11.049 45.7694 11.515 46 11.9502 46H52.0498C52.4851 46 52.9511 45.77 53.3408 45.2588C53.731 44.7469 54 43.9978 54 43.1367V26H43.8408L43.751 26.0059C43.5359 26.0343 43.2891 26.1671 43.0615 26.4678C42.8013 26.8117 42.6134 27.3276 42.6133 27.9307V27.9385C42.6132 28.943 42.2998 29.8895 41.75 30.6055C41.1997 31.322 40.3687 31.8506 39.376 31.8506H24.624C22.6151 31.8506 21.3868 29.852 21.3867 27.9502V27.9277C21.3867 27.3246 21.1985 26.8089 20.9385 26.4658C20.679 26.1235 20.3945 26.0001 20.1602 26H10V43.1367ZM21.0928 13C20.7894 13.0001 20.3595 13.1994 19.9951 13.7852L19.9512 13.8555L19.8955 13.918L10.1221 25H20.1602L20.2744 25.0039C21.4538 25.0827 22.3866 26.3728 22.3867 27.9277V27.9502L22.3984 28.2471C22.5057 29.6141 23.3452 30.6974 24.3955 30.8359L24.624 30.8506H39.376C40.5309 30.8506 41.4866 29.7015 41.6016 28.2354L41.6133 27.9385V27.9307C41.6134 26.3259 42.607 25.0011 43.8398 25H53.8789L44.1045 13.9199L44.0488 13.8564L44.0049 13.7861C43.6405 13.1996 43.2104 13.0001 42.9072 13H21.0928Z" fill="#7B778D" fill-opacity="0.3"/>
</svg>
