<svg width="64" height="64" viewBox="0 0 64 64" fill="none" xmlns="http://www.w3.org/2000/svg">
<path d="M46.7275 38.7861C56.9896 39.9515 64 42.2957 64 45C64 48.866 49.6731 52 32 52C14.3269 52 0 48.866 0 45C0 42.5094 5.94667 40.3246 14.9033 39.084L19.54 48.0166C20.4301 49.7264 22.5401 50.3966 24.25 49.5166L39.6396 41.5762L40.4697 42.8164C41.6697 44.6464 44.1796 45.0465 45.8896 43.6865C47.4041 42.482 47.7176 40.3603 46.7275 38.7861Z" fill="#7B778D" fill-opacity="0.12"/>
<path d="M39.6299 5.40625C41.3498 4.49646 43.4802 5.16658 44.3701 6.89648L55.8896 29.2363L55.9102 29.2461C56.8001 30.956 56.13 33.067 54.4102 33.957L46.25 38.167L46.2793 38.207C47.7792 39.797 47.5996 42.3265 45.8896 43.6865C44.1796 45.0465 41.6697 44.6464 40.4697 42.8164L39.6396 41.5762L24.25 49.5166C22.5401 50.3966 20.4301 49.7265 19.54 48.0166L8.08984 25.957C7.20986 24.2471 7.8694 22.1461 9.56934 21.2461L15.5 18.1162C16.25 15.4764 17.8102 13.0262 20.1201 11.1963C23.8501 8.23655 28.6698 7.55708 32.8896 8.95703L39.6299 5.40625ZM10.0195 22.127C8.8098 22.767 8.3399 24.2665 8.96973 25.4863L20.4102 47.5469C21.0503 48.7665 22.5595 49.246 23.7793 48.6162H23.7695L39.0596 40.7266L34.6094 34.0469C28.9794 36.8466 21.9593 35.4363 17.8994 30.3164C15.3694 27.1289 14.5063 23.1376 15.1816 19.4102L10.0195 22.127ZM37.6299 36.7568L41.2793 42.2461C42.1593 43.5861 44 43.8767 45.25 42.8867V42.877C46.5 41.887 46.6293 40.0362 45.5293 38.8662L41.0293 34.0566L37.6299 36.7568ZM43.46 7.34668C42.82 6.10668 41.2993 5.62637 40.0693 6.27637L34.0996 9.42676C36.0396 10.2868 37.8 11.6167 39.21 13.3867C43.2698 18.5067 43.0497 25.6669 39.0498 30.5068L45.5098 37.3965L53.9199 33.0566H53.8994C55.1294 32.4166 55.6095 30.9165 54.9795 29.6865L43.46 7.34668ZM38.3994 31.2568C38.0895 31.5767 37.7698 31.8867 37.4199 32.1865V32.207L37.0293 32.5068C36.5395 32.8967 36.0298 33.2467 35.5 33.5566L37.0801 35.9268L40.3496 33.3369L38.3994 31.2568ZM38.4395 14.0068C34.1295 8.56684 26.1695 7.6468 20.7295 11.9668V11.957C15.2898 16.2771 14.3695 24.2369 18.6895 29.6768C22.9994 35.1166 30.9494 36.0365 36.3994 31.7168L36.6494 31.5166C36.6894 31.4866 36.7198 31.447 36.7598 31.417C41.8797 27.037 42.6594 19.3268 38.4395 14.0068ZM22.04 13.627C26.58 10.027 33.19 10.7962 36.79 15.3262C40.39 19.8661 39.6196 26.4761 35.0898 30.0762C30.55 33.6761 23.9399 32.9067 20.3398 28.377C16.7398 23.837 17.51 17.227 22.04 13.627ZM36 15.9463C32.7501 11.8465 26.7601 11.1567 22.6602 14.4062C18.5602 17.6562 17.8702 23.6461 21.1201 27.7461C24.3701 31.8461 30.36 32.5361 34.46 29.2861C38.5596 26.0361 39.2499 20.0462 36 15.9463ZM15.1816 19.4102L15.1895 19.4062V19.3662C15.1868 19.3807 15.1843 19.3956 15.1816 19.4102Z" fill="#7B778D" fill-opacity="0.3"/>
<path d="M17.9097 30.3067C15.3697 27.1067 14.5097 23.0967 15.1997 19.3567C15.1997 19.3667 15.1997 19.3867 15.1997 19.3967L10.0297 22.1167C8.80965 22.7567 8.33965 24.2567 8.97965 25.4767L20.4297 47.5367C21.0697 48.7567 22.5697 49.2367 23.7997 48.6067L39.0897 40.7167L34.6397 34.0367C29.0097 36.8367 21.9897 35.4167 17.9297 30.3067H17.9097Z" fill="#7B778D" fill-opacity="0.05"/>
<path d="M55.0096 29.6965L43.4796 7.34651C42.8396 6.11651 41.3196 5.63651 40.0896 6.27651L34.1196 9.41651C36.0596 10.2865 37.8296 11.6065 39.2296 13.3765C43.2896 18.4865 43.0596 25.6465 39.0696 30.4965L45.5296 37.3865L53.9396 33.0465C55.1696 32.4165 55.6496 30.9065 55.0196 29.6765L55.0096 29.6965Z" fill="#7B778D" fill-opacity="0.05"/>
</svg>
