<?xml version="1.0" encoding="UTF-8" standalone="no"?>
<svg
   width="390px"
   height="129px"
   viewBox="0 0 390 129"
   version="1.1"
   id="svg60"
   sodipodi:docname="logo-dark.svg"
   inkscape:version="1.2.1 (9c6d41e410, 2022-07-14)"
   xmlns:inkscape="http://www.inkscape.org/namespaces/inkscape"
   xmlns:sodipodi="http://sodipodi.sourceforge.net/DTD/sodipodi-0.dtd"
   xmlns="http://www.w3.org/2000/svg"
   xmlns:svg="http://www.w3.org/2000/svg">
  <sodipodi:namedview
     id="namedview62"
     pagecolor="#ffffff"
     bordercolor="#000000"
     borderopacity="0.25"
     inkscape:showpageshadow="2"
     inkscape:pageopacity="0.0"
     inkscape:pagecheckerboard="0"
     inkscape:deskcolor="#d1d1d1"
     showgrid="false"
     inkscape:zoom="2.614482"
     inkscape:cx="137.31209"
     inkscape:cy="31.937493"
     inkscape:window-width="1920"
     inkscape:window-height="1001"
     inkscape:window-x="-9"
     inkscape:window-y="-9"
     inkscape:window-maximized="1"
     inkscape:current-layer="svg60" />
  <title
     id="title2">nightingale</title>
  <defs
     id="defs36">
    <linearGradient
       x1="0%"
       y1="59.8765432%"
       x2="100%"
       y2="40.1234568%"
       id="linearGradient-1">
      <stop
         stop-color="#0019F4"
         offset="0%"
         id="stop4" />
      <stop
         stop-color="#0019F4"
         offset="41.7613636%"
         id="stop6" />
      <stop
         stop-color="#7200F1"
         offset="100%"
         id="stop8" />
    </linearGradient>
    <linearGradient
       x1="50%"
       y1="62.5%"
       x2="100%"
       y2="37.5%"
       id="linearGradient-2">
      <stop
         stop-color="#0019F4"
         offset="0%"
         id="stop11" />
      <stop
         stop-color="#7200F1"
         offset="100%"
         id="stop13" />
    </linearGradient>
    <linearGradient
       x1="1.22342315e-13%"
       y1="62.5%"
       x2="100%"
       y2="37.5%"
       id="linearGradient-3">
      <stop
         stop-color="#0019F4"
         offset="0%"
         id="stop16" />
      <stop
         stop-color="#7200F1"
         offset="100%"
         id="stop18" />
    </linearGradient>
    <linearGradient
       x1="-1.78957223e-14%"
       y1="50%"
       x2="100%"
       y2="50%"
       id="linearGradient-4">
      <stop
         stop-color="#0019F4"
         offset="0%"
         id="stop21" />
      <stop
         stop-color="#7200F1"
         offset="100%"
         id="stop23" />
    </linearGradient>
    <linearGradient
       x1="2.53450571e-14%"
       y1="50%"
       x2="100%"
       y2="50%"
       id="linearGradient-5">
      <stop
         stop-color="#0019F4"
         offset="0%"
         id="stop26" />
      <stop
         stop-color="#7200F1"
         offset="100%"
         id="stop28" />
    </linearGradient>
    <linearGradient
       x1="2.53450571e-14%"
       y1="50%"
       x2="100%"
       y2="50%"
       id="linearGradient-6">
      <stop
         stop-color="#0019F4"
         offset="0%"
         id="stop31" />
      <stop
         stop-color="#7200F1"
         offset="100%"
         id="stop33" />
    </linearGradient>
  </defs>
  <!-- <g
     id="页面-1"
     stroke="none"
     stroke-width="1"
     fill="none"
     fill-rule="evenodd">
    <g
       id="nightingale"
       transform="translate(0.000000, 0.500000)">
      <g
         transform="translate(255.000000, 0.000000)"
         id="g54">
        <rect
           id="蒙版"
           x="0"
           y="0"
           width="120"
           height="120" />
        <g
           transform="translate(70.546875, 64.101562) rotate(45.000000) translate(-70.546875, -64.101562) translate(17.812500, 26.015625)"
           id="g52">
          <path
             d="M105.46875,29.296875 C105.46875,35.7689619 100.222087,41.015625 93.75,41.015625 C93.256954,41.015625 92.7710197,40.9851763 92.2939749,40.9260566 C87.1233542,61.1893435 68.748856,76.171875 46.875,76.171875 L46.875,76.171875 L0.46875,76.171875 C0.209866524,76.171875 -4.72792249e-15,75.9620085 -4.66451433e-15,75.703125 L-4.66451433e-15,75.703125 L-3.25808402e-15,52.734375 C-8.767581e-17,39.7902012 10.4933262,29.296875 23.4375,29.296875 L23.4375,29.296875 Z"
             id="形状结合"
             fill="url(#linearGradient-1)" />
          <path
             d="M46.875,41.015625 C59.8191738,41.015625 70.3125,30.5222988 70.3125,17.578125 C61.5820312,17.578125 38.1445312,17.578125 23.4375,17.578125 C23.4375,30.5222988 33.9308262,41.015625 46.875,41.015625 Z"
             id="椭圆形"
             fill="url(#linearGradient-2)"
             transform="translate(46.875000, 29.296875) scale(-1, -1) rotate(90.000000) translate(-46.875000, -29.296875) " />
          <path
             d="M29.296875,5.859375 C32.5329185,5.859375 35.15625,3.23604346 35.15625,-4.26785245e-14 C32.9736328,-4.26785245e-14 27.1142578,-4.26785245e-14 23.4375,-4.26785245e-14 C23.4375,3.23604346 26.0608315,5.859375 29.296875,5.859375 Z"
             id="path41"
             fill="url(#linearGradient-3)"
             transform="translate(29.296875, 2.929687) rotate(180.000000) translate(-29.296875, -2.929687) " />
          <g
             id="eye"
             transform="translate(0.000000, 29.296875)">
            <circle
               id="circle43"
               fill="url(#linearGradient-4)"
               cx="23.4375"
               cy="23.4375"
               r="23.4375" />
            <circle
               id="circle45"
               fill="#FFFFFF"
               cx="23.4375"
               cy="23.4375"
               r="18.75" />
            <circle
               id="circle47"
               fill="url(#linearGradient-5)"
               cx="23.4375"
               cy="23.4375"
               r="14.0625" />
            <circle
               id="circle49"
               fill="#FFFFFF"
               cx="14.0625"
               cy="23.4375"
               r="4.6875" />
          </g>
        </g>
      </g>
    </g>
  </g> -->
  <text
     xml:space="preserve"
     style="font-weight:bold;font-size:80px;font-family:sans-serif;-inkscape-font-specification:'sans-serif Bold';fill:#0000ff"
     x="41.366158"
     y="83.700417"
     id="text276"><tspan
       sodipodi:role="line"
       id="tspan274"
       x="41.366158"
       y="83.700417"
       style="font-size:55px;fill:#0000ff">运维监控平台</tspan></text>
</svg>
