<?xml version="1.0" encoding="UTF-8" standalone="no"?>
<svg
   width="200px"
   height="67px"
   viewBox="0 0 200 67"
   version="1.1"
   id="svg87"
   sodipodi:docname="logo-l.svg"
   inkscape:version="1.2.1 (9c6d41e410, 2022-07-14)"
   xmlns:inkscape="http://www.inkscape.org/namespaces/inkscape"
   xmlns:sodipodi="http://sodipodi.sourceforge.net/DTD/sodipodi-0.dtd"
   xmlns="http://www.w3.org/2000/svg"
   xmlns:svg="http://www.w3.org/2000/svg">
  <sodipodi:namedview
     id="namedview89"
     pagecolor="#ffffff"
     bordercolor="#000000"
     borderopacity="0.25"
     inkscape:showpageshadow="2"
     inkscape:pageopacity="0.0"
     inkscape:pagecheckerboard="0"
     inkscape:deskcolor="#d1d1d1"
     showgrid="false"
     inkscape:lockguides="true"
     inkscape:zoom="3.605"
     inkscape:cx="68.793343"
     inkscape:cy="71.151179"
     inkscape:window-width="1920"
     inkscape:window-height="1001"
     inkscape:window-x="-9"
     inkscape:window-y="-9"
     inkscape:window-maximized="1"
     inkscape:current-layer="svg87" />
  <title
     id="title51">nightingale</title>
  <defs
     id="defs63">
    <linearGradient
       x1="-4.3044332e-15"
       y1="12.02643"
       x2="24.05286"
       y2="12.02643"
       id="linearGradient-1"
       gradientUnits="userSpaceOnUse">
      <stop
         stop-color="#6C53B1"
         stop-opacity="0.08"
         offset="0%"
         id="stop53" />
      <stop
         stop-color="#6C53B1"
         stop-opacity="0.8"
         offset="100%"
         id="stop55" />
    </linearGradient>
    <radialGradient
       cx="19.242288"
       cy="12.02643"
       fx="19.242288"
       fy="12.02643"
       r="14.431716"
       id="radialGradient-2"
       gradientUnits="userSpaceOnUse">
      <stop
         stop-color="#6C53B1"
         stop-opacity="0.4"
         offset="0%"
         id="stop58" />
      <stop
         stop-color="#6C53B1"
         offset="100%"
         id="stop60" />
    </radialGradient>
  </defs>
  <!-- <g
     transform="translate(130.84756,0.881904)"
     id="g81"
     style="fill:none;fill-rule:evenodd;stroke:none;stroke-width:1">
    <rect
       id="蒙版"
       x="0"
       y="0.0605985"
       width="61.575321"
       height="61.575321" />
    <g
       transform="rotate(45,15.442287,37.280978)"
       id="g79">
      <path
         d="m 54.118936,15.033038 c 0,3.321007 -2.692208,6.013215 -6.013215,6.013215 -0.252746,0 -0.501849,-0.01559 -0.746401,-0.04587 -2.653272,10.397039 -12.081996,18.085515 -23.30646,18.085515 v 0 H 0.46875 C 0.20986652,39.085898 0,38.876032 0,38.617148 v 0 -11.55768 c 0,-6.642014 5.3844162,-12.02643 12.02643,-12.02643 v 0 z"
         id="形状结合"
         fill="#ffffff" />
      <path
         d="m 24.05286,21.046253 c 6.642014,0 12.02643,-5.384416 12.02643,-12.0264304 -4.479845,0 -16.506275,0 -24.05286,0 0,6.6420144 5.384416,12.0264304 12.02643,12.0264304 z"
         id="椭圆形"
         fill="#ffffff"
         transform="rotate(-90,24.05286,15.033038)" />
      <path
         d="m 15.033038,3.0066075 c 1.660503,0 3.006607,-1.346104 3.006607,-3.0066075 -1.119961,0 -4.126569,0 -6.013215,0 0,1.6605035 1.346104,3.0066075 3.006608,3.0066075 z"
         id="path68"
         fill="#ffffff"
         transform="rotate(180,15.033038,1.503304)" />
      <g
         id="eye"
         transform="translate(0,15.033038)">
        <circle
           id="circle70"
           fill="url(#linearGradient-1)"
           cx="12.02643"
           cy="12.02643"
           r="12.02643"
           style="fill:url(#linearGradient-1)" />
        <circle
           id="circle72"
           fill="#ffffff"
           cx="12.02643"
           cy="12.02643"
           r="9.6211443" />
        <circle
           id="circle74"
           fill="url(#radialGradient-2)"
           cx="12.02643"
           cy="12.02643"
           r="7.215858"
           style="fill:url(#radialGradient-2)" />
        <circle
           id="circle76"
           fill="#ffffff"
           cx="7.215858"
           cy="12.02643"
           r="2.4052861" />
      </g>
    </g>
  </g> -->
  <text
     xml:space="preserve"
     style="font-weight:bold;font-size:32px;font-family:sans-serif;-inkscape-font-specification:'sans-serif Bold';fill:#f2f2f2"
     x="4.2496529"
     y="45.506241"
     id="text389"><tspan
       sodipodi:role="line"
       id="tspan387"
       x="45.2496529"
       y="45.506241"
       style="font-size:32px;fill:#f2f2f2">监控平台</tspan></text>
</svg>
