<svg width="14" height="14" viewBox="0 0 14 14" fill="none" xmlns="http://www.w3.org/2000/svg">
<path d="M0 7C0 3.13401 3.13401 0 7 0V0C10.866 0 14 3.13401 14 7V7C14 10.866 10.866 14 7 14V14C3.13401 14 0 10.866 0 7V7Z" fill="#FFD500"/>
<path d="M11.2133 10.1781C11.2132 10.178 11.213 10.1778 11.213 10.1777C11.1352 10.0899 11.0981 9.92701 11.0582 9.75351C11.0185 9.58014 10.974 9.39317 10.8317 9.27199C10.8314 9.27172 10.831 9.27148 10.8308 9.27121C10.8026 9.24659 10.7736 9.22583 10.7445 9.2085C10.7152 9.19119 10.6856 9.17709 10.656 9.16593C10.8539 8.57913 10.7763 7.99478 10.5765 7.46683C10.3314 6.81874 9.90352 6.25414 9.57665 5.8679C9.2108 5.40639 8.85301 4.96834 8.86008 4.32127C8.87097 3.33375 8.96868 1.50244 7.23086 1.5C7.1602 1.49988 7.08647 1.50283 7.00966 1.50898C5.06768 1.6653 5.5828 3.71704 5.55395 4.40398C5.51843 4.9064 5.41661 5.30239 5.07102 5.79352C4.66516 6.2762 4.09349 7.05752 3.82279 7.87091C3.69507 8.25471 3.63429 8.64594 3.69033 9.01628C3.67276 9.03205 3.65609 9.04861 3.64006 9.06554C3.52093 9.19287 3.43283 9.347 3.33473 9.45074C3.24305 9.54231 3.11251 9.57706 2.96888 9.62847C2.82526 9.68003 2.66766 9.75593 2.572 9.93956C2.572 9.93956 2.572 9.9397 2.57187 9.9397C2.57174 9.93996 2.57162 9.94035 2.57136 9.94059C2.52635 10.0246 2.51173 10.1152 2.51173 10.2072C2.51173 10.2922 2.5243 10.3784 2.53699 10.4613C2.56341 10.6339 2.59021 10.7972 2.55469 10.9077C2.44107 11.2184 2.42646 11.4332 2.50647 11.5892C2.58675 11.7454 2.75153 11.8142 2.93785 11.8532C3.3105 11.9309 3.8151 11.9117 4.21275 12.1225L4.24699 12.058L4.21314 12.1226C4.63887 12.3452 5.07051 12.4242 5.41481 12.3456C5.66461 12.2887 5.86722 12.14 5.97135 11.9112C6.24064 11.9099 6.53622 11.7958 7.00966 11.7697C7.33088 11.7438 7.73212 11.8839 8.19364 11.8582C8.20569 11.9082 8.22314 11.9564 8.24698 12.0022C8.24725 12.0026 8.2475 12.0031 8.24776 12.0035C8.42664 12.3613 8.75902 12.5249 9.11334 12.4969C9.46802 12.469 9.84516 12.2598 10.1501 11.8971L10.0942 11.8501L10.1505 11.8966C10.4411 11.5442 10.9234 11.3981 11.2433 11.2052C11.4032 11.1088 11.5329 10.988 11.543 10.8126C11.553 10.6373 11.45 10.4408 11.2133 10.1781Z" fill="black"/>
<path d="M11.3977 10.8039C11.3915 10.9121 11.3132 10.9925 11.1684 11.0797C10.8791 11.2543 10.3663 11.4061 10.0389 11.8027C9.75446 12.1411 9.40771 12.3269 9.1024 12.351C8.79709 12.3752 8.53369 12.2485 8.37827 11.9367L8.378 11.9361L8.37763 11.9353C8.28118 11.7519 8.32132 11.4628 8.40249 11.1576C8.48366 10.8525 8.60035 10.5391 8.616 10.2846V10.2838C8.6324 9.95756 8.65075 9.67262 8.70549 9.45269C8.76038 9.23277 8.84668 9.08402 8.99955 9.00029C9.00673 8.99644 9.01377 8.99272 9.02082 8.98926C9.03814 9.27176 9.17805 9.56004 9.42527 9.62235C9.69585 9.69366 10.0858 9.46154 10.2505 9.27214C10.2834 9.27085 10.3155 9.26919 10.3466 9.26842C10.4912 9.26495 10.6122 9.2733 10.7361 9.38153L10.7365 9.3819L10.7368 9.38217C10.832 9.46283 10.8773 9.61517 10.9165 9.78572C10.9558 9.95641 10.987 10.1422 11.1048 10.2747L11.1049 10.2748L11.105 10.2751C11.3312 10.526 11.4039 10.6955 11.3977 10.8039Z" fill="#FFCC00"/>
<path d="M5.89937 11.604L5.89924 11.6048V11.6057C5.87308 11.9486 5.67971 12.1353 5.38272 12.2031C5.08598 12.271 4.68346 12.2034 4.28157 11.9932C4.28145 11.9932 4.28132 11.9931 4.28119 11.9931C3.83647 11.7575 3.30751 11.781 2.96808 11.7101C2.79842 11.6747 2.68763 11.6213 2.63685 11.5223C2.58607 11.4232 2.58491 11.2505 2.69289 10.9559L2.6934 10.9546L2.69378 10.9534C2.74726 10.7886 2.70763 10.6083 2.68173 10.439C2.65583 10.2699 2.64313 10.1159 2.70097 10.0087L2.70148 10.0076C2.77547 9.86503 2.88395 9.814 3.0186 9.76578C3.15337 9.71744 3.31302 9.67949 3.43908 9.55304L3.43985 9.5524L3.44049 9.55176C3.55705 9.42878 3.64464 9.27452 3.7471 9.16514C3.83353 9.07281 3.92008 9.01164 4.0505 9.01074C4.05204 9.01088 4.05345 9.01088 4.05498 9.01074C4.07781 9.01088 4.10205 9.01279 4.12769 9.01678C4.30081 9.04294 4.45174 9.16398 4.59716 9.3612L5.01699 10.1264L5.01712 10.1268L5.01738 10.127C5.12907 10.3603 5.36502 10.6169 5.56494 10.8786C5.76485 11.1402 5.9195 11.403 5.89937 11.604Z" fill="#FFCC00"/>
<path d="M7.99303 4.47047C7.9593 4.40443 7.89044 4.3416 7.77323 4.29351L7.77298 4.29338L7.77259 4.29326C7.52882 4.18887 7.42303 4.18144 7.28697 4.09295C7.06551 3.95062 6.88252 3.90073 6.73044 3.90137C6.6508 3.90163 6.57963 3.91574 6.5159 3.93779C6.33061 4.00152 6.20763 4.1345 6.13056 4.20747L6.13043 4.2076C6.13043 4.20772 6.1303 4.20772 6.1303 4.20785C6.11517 4.22221 6.09568 4.23529 6.04849 4.26992C6.00092 4.30467 5.92962 4.35699 5.82703 4.43393C5.73586 4.50228 5.70624 4.59127 5.73778 4.69552C5.7692 4.79978 5.86973 4.92006 6.05362 5.02406L6.05388 5.02432L6.05426 5.02444C6.16839 5.09151 6.24636 5.18191 6.33586 5.25385C6.38062 5.28976 6.42768 5.32182 6.48436 5.34605C6.54104 5.37029 6.60721 5.3867 6.69004 5.39158C6.88445 5.40286 7.02756 5.34452 7.15387 5.27219C7.28043 5.2 7.38762 5.11164 7.51061 5.07176L7.51087 5.07163L7.51114 5.07151C7.76323 4.99277 7.94303 4.83415 7.99931 4.68347C8.02752 4.60807 8.02662 4.53651 7.99303 4.47047Z" fill="#FFCC00"/>
<path d="M7.35387 4.84313C7.1533 4.94768 6.91903 5.07447 6.66974 5.07447C6.42059 5.07447 6.22375 4.95931 6.08218 4.84711C6.01139 4.79107 5.95394 4.73529 5.9106 4.69477C5.8354 4.63541 5.84441 4.55215 5.8753 4.55461C5.92709 4.56107 5.93492 4.62926 5.96754 4.65976C6.01165 4.70105 6.06692 4.75452 6.13385 4.80761C6.26773 4.91366 6.44623 5.01689 6.66974 5.01689C6.89287 5.01689 7.15333 4.8859 7.31232 4.79671C7.4024 4.74618 7.51701 4.65561 7.61055 4.58695C7.68211 4.53442 7.6795 4.47117 7.73859 4.47806C7.79768 4.48494 7.75397 4.54807 7.67122 4.62029C7.58847 4.6925 7.45902 4.78832 7.35387 4.84313Z" fill="#202020"/>
<path d="M10.4251 9.12299C10.3973 9.12197 10.3698 9.12211 10.3432 9.12274C10.3407 9.12287 10.3383 9.12287 10.3357 9.12287C10.4046 8.90538 10.2522 8.74496 9.84626 8.56133C9.42527 8.37617 9.08981 8.3945 9.03313 8.77022C9.02954 8.78984 9.02659 8.80997 9.02441 8.83024C8.99287 8.84126 8.96132 8.85511 8.92952 8.87243C8.73191 8.98065 8.62394 9.17685 8.56392 9.41769C8.50404 9.65825 8.48673 9.94896 8.47031 10.2758C8.47031 10.2757 8.47031 10.276 8.47031 10.2758C8.46018 10.4401 8.39248 10.6627 8.324 10.8982C7.63436 11.3902 6.67722 11.6033 5.86448 11.0486C5.80946 10.9615 5.74624 10.8752 5.68123 10.79C5.63968 10.7357 5.59698 10.6817 5.55466 10.6284C5.63802 10.6285 5.70893 10.6147 5.76625 10.5889C5.83755 10.5564 5.88756 10.5046 5.91244 10.4379C5.96193 10.3047 5.91218 10.1167 5.75355 9.9019C5.59493 9.68724 5.32628 9.445 4.93158 9.2029C4.64151 9.02247 4.47942 8.80126 4.40351 8.56121C4.32747 8.32103 4.33811 8.06136 4.39671 7.80502C4.50905 7.31299 4.79757 6.83442 4.98172 6.5341C5.03121 6.49768 4.99941 6.6018 4.79526 6.98086C4.6124 7.32736 4.2704 8.12702 4.73858 8.75127C4.75115 8.30706 4.8572 7.85401 5.03532 7.43019C5.29473 6.84224 5.83729 5.8224 5.88038 5.00965C5.90269 5.02581 5.97899 5.07736 6.01297 5.09673C6.01284 5.09673 6.0131 5.09685 6.01297 5.09673C6.11248 5.15533 6.1875 5.24112 6.28431 5.31895C6.38139 5.39692 6.50257 5.46424 6.68569 5.47489C6.70325 5.47591 6.72044 5.47642 6.73723 5.47642C6.92599 5.47642 7.07321 5.41487 7.1958 5.34473C7.32905 5.26856 7.43547 5.18418 7.5364 5.15135C7.53627 5.15135 7.53653 5.15122 7.5364 5.15135C7.74965 5.08467 7.91943 4.96657 8.01585 4.8291C8.18153 5.48207 8.56674 6.42523 8.81438 6.88546C8.94607 7.12961 9.20791 7.64845 9.32103 8.27359C9.39271 8.27139 9.4717 8.28179 9.55621 8.30345C9.85204 7.53649 9.30538 6.71053 9.05533 6.48048C8.95441 6.38251 8.94954 6.33866 8.99967 6.34071C9.27076 6.58063 9.62685 7.06292 9.75638 7.6074C9.81548 7.85565 9.82806 8.11674 9.7647 8.37437C9.79561 8.38719 9.82715 8.40117 9.85908 8.41631C10.3339 8.6475 10.5095 8.84857 10.4251 9.12299Z" fill="white"/>
<path d="M8.01571 3.71895C8.01674 3.84834 7.99443 3.95849 7.94531 4.07095C7.91736 4.13507 7.88518 4.18892 7.84659 4.2356C7.83349 4.22932 7.81991 4.22329 7.80579 4.21752C7.75694 4.19662 7.71372 4.17943 7.67501 4.16482C7.63627 4.1502 7.60604 4.14021 7.57487 4.12944C7.59745 4.10212 7.64194 4.06994 7.65849 4.02954C7.68363 3.96863 7.69594 3.90913 7.69825 3.83822C7.69825 3.8354 7.69914 3.83296 7.69914 3.82963C7.70055 3.76166 7.69158 3.70357 7.6717 3.64407C7.65093 3.58162 7.6245 3.53674 7.5863 3.49942C7.54796 3.46211 7.50974 3.44518 7.46383 3.44364C7.46165 3.44351 7.4596 3.44351 7.45742 3.44351C7.41434 3.44364 7.37689 3.45852 7.33815 3.49083C7.2975 3.52482 7.26737 3.56829 7.24225 3.62881C7.21724 3.68934 7.20493 3.74935 7.20248 3.82065C7.20211 3.82347 7.20211 3.82591 7.20211 3.82873C7.20121 3.86797 7.20378 3.90387 7.2098 3.93875C7.12158 3.89477 7.00871 3.8627 6.93074 3.8441C6.92625 3.81038 6.92369 3.77563 6.92292 3.73921V3.72933C6.92151 3.60033 6.94267 3.48967 6.99229 3.37733C7.04192 3.26487 7.10334 3.18408 7.18976 3.1183C7.27632 3.05265 7.36135 3.02251 7.462 3.02148H7.46674C7.56523 3.02148 7.64948 3.05047 7.73603 3.11317C7.82387 3.17703 7.88722 3.25679 7.93826 3.36836C7.98827 3.4771 8.01238 3.5834 8.01483 3.70946C8.01481 3.71279 8.01481 3.71561 8.01571 3.71895Z" fill="white"/>
<path d="M6.52647 3.84732C6.51352 3.85104 6.50095 3.85501 6.48851 3.85925C6.41798 3.88361 6.36198 3.9105 6.30787 3.94628C6.31313 3.90883 6.3139 3.87088 6.30979 3.82843C6.30941 3.82612 6.30941 3.8242 6.30941 3.82189C6.30377 3.7656 6.29184 3.71841 6.27196 3.6707C6.25081 3.62108 6.22708 3.58607 6.19592 3.55914C6.16771 3.53477 6.14104 3.52349 6.11154 3.52375C6.10859 3.52375 6.10552 3.52387 6.10244 3.52413C6.06936 3.52695 6.04191 3.54311 6.01588 3.57478C5.98998 3.60633 5.97292 3.64557 5.96061 3.69763C5.9483 3.74957 5.9451 3.8006 5.95023 3.85921C5.95023 3.86151 5.95074 3.86344 5.95074 3.86575C5.95638 3.92255 5.96779 3.96974 5.98805 4.01745C6.00883 4.06656 6.03294 4.10157 6.0641 4.1285C6.06936 4.13299 6.07448 4.13709 6.07961 4.14068C6.0473 4.16568 6.02559 4.18342 5.99891 4.20291C5.98186 4.21535 5.9616 4.23023 5.938 4.24767C5.88658 4.19945 5.84644 4.13892 5.81131 4.05903C5.76976 3.96465 5.74758 3.87015 5.74091 3.75858V3.75769C5.73475 3.64612 5.74565 3.5502 5.7763 3.45095C5.80708 3.3517 5.84811 3.27989 5.90774 3.2209C5.96724 3.16178 6.02725 3.13203 6.09958 3.12831C6.10522 3.12806 6.11073 3.12793 6.11625 3.12793C6.18178 3.12806 6.24025 3.14986 6.30078 3.1982C6.36643 3.25065 6.41606 3.31772 6.45761 3.41222C6.49928 3.50673 6.52147 3.60124 6.52762 3.7128V3.7137C6.53057 3.76051 6.53019 3.80462 6.52647 3.84732Z" fill="white"/>
<path d="M6.85597 4.11328C6.86427 4.1399 6.90718 4.13549 6.93197 4.14826C6.95372 4.15946 6.97122 4.18402 6.99568 4.18473C7.01902 4.1854 7.05535 4.17664 7.05839 4.15349C7.0624 4.1229 7.01773 4.10346 6.98898 4.09225C6.95199 4.07783 6.9046 4.07051 6.8699 4.0898C6.86195 4.09423 6.85327 4.10459 6.85597 4.11328Z" fill="#202020"/>
<path d="M6.60306 4.11328C6.59477 4.1399 6.55186 4.13549 6.52707 4.14826C6.50531 4.15946 6.48781 4.18402 6.46335 4.18473C6.44001 4.1854 6.40368 4.17664 6.40064 4.15349C6.39663 4.1229 6.4413 4.10346 6.47005 4.09225C6.50704 4.07783 6.55444 4.07051 6.58914 4.0898C6.59709 4.09423 6.60577 4.10459 6.60306 4.11328Z" fill="#202020"/>
</svg>
