<svg width="14" height="14" viewBox="0 0 14 14" fill="none" xmlns="http://www.w3.org/2000/svg">
<rect width="14" height="14" rx="7" fill="black"/>
<path d="M7.05676 4.83591C6.70126 4.83591 6.15096 4.43171 5.57144 4.44632C4.80687 4.45606 4.10561 4.88948 3.71115 5.57613C2.91736 6.95431 3.50661 8.98992 4.28092 10.11C4.66078 10.6554 5.10881 11.269 5.70293 11.2495C6.27271 11.2252 6.48698 10.8794 7.17851 10.8794C7.86516 10.8794 8.05996 11.2495 8.66382 11.2349C9.27743 11.2252 9.66702 10.6798 10.042 10.1295C10.4754 9.49639 10.6556 8.88278 10.6653 8.84869C10.6507 8.84382 9.47222 8.39093 9.45761 7.02736C9.44787 5.8878 10.3878 5.34238 10.4316 5.31803C9.8959 4.53398 9.07289 4.44632 8.78557 4.42684C8.03561 4.3684 7.40739 4.83591 7.05676 4.83591ZM8.32293 3.68662C8.63947 3.30677 8.84888 2.77595 8.79044 2.25C8.33754 2.26948 7.79211 2.55193 7.46583 2.93178C7.17364 3.26781 6.9204 3.80836 6.98858 4.32457C7.49018 4.36353 8.00639 4.06647 8.32293 3.68662Z" fill="white"/>
</svg>
