<svg width="512" height="512" viewBox="0 0 512 512" fill="none" xmlns="http://www.w3.org/2000/svg">
<rect width="512" height="512" fill="#040406"/>
<path d="M161.687 272.971C160.658 272.969 159.649 272.706 158.76 272.21C157.872 271.714 157.135 271.003 156.625 270.147C156.115 269.291 155.849 268.321 155.855 267.336C155.86 266.35 156.137 265.383 156.656 264.533L251.992 105.805C252.378 105.166 252.891 104.607 253.502 104.158C254.113 103.709 254.811 103.38 255.555 103.19C256.298 103 257.074 102.952 257.837 103.049C258.601 103.146 259.336 103.386 260.003 103.756C260.669 104.125 261.253 104.617 261.721 105.203C262.189 105.789 262.532 106.458 262.731 107.171C262.929 107.884 262.979 108.627 262.878 109.359C262.777 110.091 262.526 110.796 262.141 111.435L166.755 270.102C166.252 270.969 165.517 271.692 164.627 272.196C163.736 272.7 162.721 272.968 161.687 272.971ZM189.843 272.971C188.817 272.965 187.81 272.7 186.923 272.203C186.037 271.707 185.302 270.995 184.793 270.141C184.283 269.286 184.017 268.318 184.021 267.334C184.024 266.35 184.298 265.384 184.813 264.533L265.674 129.433C266.448 128.143 267.725 127.2 269.224 126.812C270.722 126.425 272.32 126.624 273.666 127.365C275.012 128.107 275.995 129.331 276.4 130.768C276.804 132.204 276.597 133.736 275.823 135.026L194.924 270.102C194.418 270.969 193.681 271.691 192.788 272.196C191.896 272.7 190.879 272.967 189.843 272.971ZM219.094 272.971C218.064 272.973 217.053 272.711 216.164 272.212C215.499 271.841 214.916 271.349 214.449 270.763C213.982 270.176 213.64 269.507 213.442 268.794C213.245 268.081 213.196 267.338 213.298 266.607C213.401 265.875 213.652 265.171 214.039 264.533L280.966 154.182C281.334 153.511 281.84 152.918 282.453 152.44C283.066 151.961 283.774 151.607 284.533 151.397C285.293 151.188 286.089 151.128 286.874 151.221C287.658 151.314 288.415 151.558 289.099 151.939C289.782 152.32 290.378 152.83 290.851 153.437C291.324 154.045 291.663 154.737 291.849 155.474C292.035 156.211 292.064 156.976 291.933 157.723C291.803 158.471 291.516 159.185 291.09 159.823L224.162 270.126C223.654 270.987 222.918 271.703 222.028 272.203C221.138 272.703 220.126 272.968 219.094 272.971ZM248.861 272.971C247.846 272.975 246.848 272.721 245.968 272.236C245.298 271.866 244.711 271.374 244.241 270.786C243.77 270.198 243.426 269.527 243.227 268.811C243.029 268.095 242.98 267.348 243.083 266.614C243.187 265.88 243.441 265.173 243.83 264.533L294.887 178.714C295.249 178.039 295.749 177.442 296.358 176.958C296.966 176.474 297.671 176.113 298.429 175.897C299.187 175.681 299.983 175.614 300.769 175.7C301.555 175.787 302.314 176.025 303.001 176.4C303.688 176.776 304.289 177.281 304.767 177.884C305.245 178.488 305.591 179.179 305.784 179.914C305.976 180.649 306.011 181.415 305.887 182.163C305.763 182.912 305.482 183.629 305.061 184.271L254.004 270.09C253.495 270.968 252.749 271.699 251.844 272.206C250.939 272.712 249.909 272.977 248.861 272.971ZM105.059 367C103.553 366.933 102.132 366.313 101.091 365.268C100.05 364.223 99.4697 362.833 99.4697 361.388C99.4697 359.944 100.05 358.554 101.091 357.509C102.132 356.464 103.553 355.844 105.059 355.777L292.511 355.572C294.016 355.639 295.437 356.259 296.478 357.304C297.519 358.349 298.099 359.739 298.099 361.183C298.099 362.628 297.519 364.018 296.478 365.063C295.437 366.108 294.016 366.728 292.511 366.795L105.059 367ZM119.558 343.891C118.053 343.824 116.632 343.203 115.591 342.158C114.55 341.113 113.969 339.724 113.969 338.279C113.969 336.834 114.55 335.445 115.591 334.4C116.632 333.355 118.053 332.734 119.558 332.667L278.426 332.197C279.932 332.264 281.352 332.885 282.393 333.93C283.434 334.975 284.015 336.364 284.015 337.809C284.015 339.254 283.434 340.643 282.393 341.688C281.352 342.733 279.932 343.354 278.426 343.42L119.558 343.891ZM263.801 319.142L134.272 318.804C133.48 318.839 132.689 318.72 131.947 318.454C131.205 318.188 130.527 317.78 129.954 317.256C129.38 316.731 128.924 316.101 128.613 315.402C128.301 314.704 128.14 313.952 128.14 313.193C128.14 312.433 128.301 311.681 128.613 310.983C128.924 310.285 129.38 309.654 129.954 309.129C130.527 308.605 131.205 308.197 131.947 307.931C132.689 307.665 133.48 307.546 134.272 307.581L263.801 307.919C265.306 307.986 266.727 308.606 267.768 309.651C268.809 310.696 269.389 312.085 269.389 313.53C269.389 314.975 268.809 316.364 267.768 317.409C266.727 318.454 265.306 319.075 263.801 319.142ZM149.513 294.972C148.008 294.905 146.587 294.284 145.546 293.239C144.505 292.194 143.925 290.805 143.925 289.36C143.925 287.915 144.505 286.526 145.546 285.481C146.587 284.436 148.008 283.815 149.513 283.748L248.974 283.182C250.479 283.249 251.9 283.869 252.941 284.914C253.982 285.959 254.563 287.349 254.563 288.793C254.563 290.238 253.982 291.628 252.941 292.673C251.9 293.718 250.479 294.338 248.974 294.405L149.513 294.972ZM406.685 366.916C405.649 366.915 404.632 366.651 403.738 366.152C402.843 365.652 402.103 364.934 401.592 364.071L308.205 206.765C307.515 205.478 307.37 203.984 307.8 202.596C308.231 201.209 309.204 200.034 310.516 199.317C311.828 198.6 313.378 198.397 314.843 198.749C316.308 199.101 317.575 199.982 318.379 201.208L411.765 358.562C412.532 359.853 412.732 361.384 412.322 362.817C411.911 364.25 410.924 365.469 409.577 366.204C408.694 366.68 407.697 366.925 406.685 366.916ZM378.54 366.433C377.506 366.435 376.49 366.174 375.595 365.676C374.7 365.179 373.959 364.462 373.447 363.6L294.133 230.14C293.712 229.498 293.431 228.781 293.307 228.032C293.183 227.284 293.218 226.519 293.41 225.783C293.603 225.048 293.949 224.357 294.427 223.754C294.905 223.15 295.506 222.645 296.193 222.27C296.88 221.894 297.639 221.656 298.425 221.57C299.211 221.483 300.007 221.55 300.765 221.766C301.523 221.982 302.228 222.343 302.836 222.827C303.445 223.311 303.945 223.908 304.307 224.583L383.634 358.043C384.401 359.337 384.601 360.869 384.191 362.304C383.781 363.74 382.793 364.96 381.445 365.698C380.562 366.185 379.56 366.439 378.54 366.433ZM348.522 366.783C347.482 366.786 346.459 366.521 345.561 366.017C344.663 365.512 343.923 364.786 343.417 363.914L279.47 254.395C278.76 253.099 278.606 251.588 279.041 250.185C279.476 248.782 280.464 247.597 281.797 246.882C283.129 246.167 284.7 245.979 286.175 246.358C287.65 246.736 288.912 247.652 289.694 248.91L353.628 358.429C354.129 359.283 354.388 360.247 354.379 361.226C354.37 362.206 354.094 363.166 353.577 364.011C353.061 364.856 352.322 365.557 351.435 366.043C350.549 366.529 349.544 366.785 348.522 366.783ZM319.397 366.084C318.361 366.086 317.344 365.823 316.448 365.323C315.553 364.823 314.813 364.104 314.304 363.239L264.593 279.155C263.911 277.867 263.773 276.376 264.208 274.992C264.644 273.609 265.618 272.439 266.93 271.727C268.241 271.014 269.789 270.814 271.251 271.167C272.713 271.52 273.976 272.399 274.779 273.622L324.49 357.706C324.871 358.346 325.115 359.053 325.21 359.784C325.304 360.516 325.247 361.258 325.041 361.968C324.836 362.678 324.486 363.343 324.011 363.923C323.537 364.503 322.948 364.987 322.277 365.348C321.402 365.835 320.408 366.089 319.397 366.084Z" fill="white"/>
</svg>
