<svg width="256" height="256" viewBox="0 0 256 256" fill="none" xmlns="http://www.w3.org/2000/svg">
<rect width="256" height="256" fill="#8D6FDE"/>
<path d="M48.6094 150.768C48.778 150.737 104.53 140.482 127.788 170.6C150.448 140.869 206.97 150.768 206.97 150.768L204.405 167.164C204.405 167.164 142.198 153.52 137.398 193H118.198C113.398 153.618 51.1734 167.164 51.1734 167.164L48.6094 150.768ZM127.798 108.8C127.798 108.8 138.598 120.2 138.598 132.2C138.598 139.4 133.763 146 127.798 146C121.834 146 116.998 139.4 116.998 132.2C116.998 120.2 127.798 108.8 127.798 108.8ZM57.7945 118.516C57.7945 118.516 71.8805 111.573 83.343 115.125C90.2203 117.255 95.0931 123.827 93.3281 129.525C91.5629 135.222 83.8282 137.888 76.9508 135.757C65.4975 132.209 57.8068 118.538 57.7945 118.516ZM172.18 115.125C183.637 111.575 197.712 118.508 197.728 118.516C197.695 118.575 190.01 132.214 178.573 135.757C171.695 137.888 163.96 135.222 162.195 129.525C160.43 123.827 165.303 117.255 172.18 115.125ZM77.1898 84.9152C77.2283 84.9078 92.6159 81.9212 102.732 88.348C108.809 92.209 111.787 99.8291 108.589 104.864C105.391 109.898 97.2265 110.44 91.1492 106.579C81.0207 100.144 77.1898 84.9152 77.1898 84.9152ZM152.429 88.348C162.545 81.9212 177.933 84.9078 177.971 84.9152C177.971 84.9152 174.14 100.144 164.012 106.579C157.934 110.44 149.77 109.898 146.572 104.864C143.373 99.8291 146.352 92.209 152.429 88.348ZM127.798 56.5996C127.798 56.5996 138.598 67.9996 138.598 79.9996C138.598 87.1996 133.763 93.7996 127.798 93.7996C121.834 93.7996 116.998 87.1996 116.998 79.9996C116.998 67.9996 127.798 56.5996 127.798 56.5996Z" fill="white"/>
</svg>
