<svg width="14" height="14" viewBox="0 0 14 14" fill="none" xmlns="http://www.w3.org/2000/svg">
<path d="M1.56934 6.30904C1.59412 7.87179 2.40607 9.45918 3.67676 10.3217C4.45969 10.8854 5.48476 11.1703 6.4541 11.1098C6.52618 11.0975 6.59882 11.0909 6.6709 11.0903C6.99199 11.0872 7.3079 11.1972 7.55859 11.4028C7.6832 11.5046 7.79279 11.6307 7.87793 11.7788C8.15861 12.2659 8.10795 12.8522 7.79688 13.2788C7.68699 13.4288 7.54564 13.5599 7.37402 13.6587C7.08937 13.8229 6.7691 13.8744 6.46777 13.8256C6.41843 13.8158 6.36868 13.8045 6.31934 13.7934C3.46443 13.1375 1.23122 10.6243 1.36133 7.57369C1.38294 7.13842 1.45451 6.71345 1.56934 6.30904Z" fill="url(#paint0_linear_680_5140)"/>
<path d="M12.0449 3.15475C12.2294 3.17456 12.4135 3.2328 12.585 3.3315C12.87 3.49637 13.074 3.74752 13.1826 4.03268C13.1987 4.08078 13.2137 4.12911 13.2285 4.17721C14.0873 6.97737 13.0288 10.1677 10.3213 11.5805C9.93431 11.7793 9.53039 11.9296 9.12305 12.0327C10.4639 11.2293 11.4322 9.73238 11.5439 8.20065C11.6402 7.24121 11.375 6.21121 10.8379 5.40182C10.7911 5.34582 10.7498 5.28622 10.7129 5.22408C10.5499 4.94745 10.4866 4.61913 10.5391 4.29928C10.565 4.14011 10.62 3.98349 10.7051 3.83541C10.986 3.34822 11.5201 3.09856 12.0449 3.15475Z" fill="url(#paint1_linear_680_5140)"/>
<path d="M1.45703 2.99557C3.45273 0.851274 6.74564 0.172901 9.32227 1.811C9.68779 2.04748 10.0208 2.32218 10.3135 2.6235C8.94764 1.8634 7.1667 1.77352 5.78418 2.44283C4.90428 2.83925 4.14574 3.58453 3.71289 4.45455C3.6876 4.52295 3.65684 4.58895 3.62109 4.65182C3.46305 4.93148 3.21095 5.14987 2.90723 5.26412C2.75598 5.32092 2.59287 5.35298 2.42188 5.35299C1.85944 5.35299 1.37678 5.01542 1.16309 4.53268C1.08775 4.36225 1.04492 4.17425 1.04492 3.97604C1.04497 3.64699 1.16188 3.34494 1.35449 3.10787C1.38837 3.0703 1.42254 3.03253 1.45703 2.99557Z" fill="url(#paint2_linear_680_5140)"/>
<defs>
<linearGradient id="paint0_linear_680_5140" x1="1" y1="3.5" x2="11.5" y2="12" gradientUnits="userSpaceOnUse">
<stop offset="0.0894766" stop-color="#CD1E97"/>
<stop offset="1" stop-color="#118DEF"/>
</linearGradient>
<linearGradient id="paint1_linear_680_5140" x1="1" y1="3.5" x2="11.5" y2="12" gradientUnits="userSpaceOnUse">
<stop offset="0.0894766" stop-color="#CD1E97"/>
<stop offset="1" stop-color="#118DEF"/>
</linearGradient>
<linearGradient id="paint2_linear_680_5140" x1="1" y1="3.5" x2="11.5" y2="12" gradientUnits="userSpaceOnUse">
<stop offset="0.0894766" stop-color="#CD1E97"/>
<stop offset="1" stop-color="#118DEF"/>
</linearGradient>
</defs>
</svg>
